SplineFontDB: 3.2
FontName: Vazirmatn-Black
FullName: Vazirmatn Black
FamilyName: Vazirmatn Black
Weight: Black
Copyright: Copyright 2015 The Vazirmatn Project Authors (https://github.com/rastikerdar/vazirmatn)
Version: 32.0.0
ItalicAngle: 0
UnderlinePosition: -730
UnderlineWidth: 100
Ascent: 1638
Descent: 410
InvalidEm: 0
LayerCount: 2
Layer: 0 0 "Back" 1
Layer: 1 0 "Fore" 0
PreferredKerning: 4
XUID: [1021 502 1027637223 14955255]
UniqueID: 4204345
FSType: 0
OS2Version: 4
OS2_WeightWidthSlopeOnly: 0
OS2_UseTypoMetrics: 1
CreationTime: 1431850356
ModificationTime: 1646655515
PfmFamily: 33
TTFWeight: 900
TTFWidth: 5
LineGap: 0
VLineGap: 0
Panose: 2 11 6 3 3 8 4 2 2 4
OS2TypoAscent: 2100
OS2TypoAOffset: 0
OS2TypoDescent: -1100
OS2TypoDOffset: 0
OS2TypoLinegap: 0
OS2WinAscent: 2200
OS2WinAOffset: 0
OS2WinDescent: 1300
OS2WinDOffset: 0
HheadAscent: 2100
HheadAOffset: 0
HheadDescent: -1100
HheadDOffset: 0
OS2SubXSize: 1331
OS2SubYSize: 1433
OS2SubXOff: 0
OS2SubYOff: 286
OS2SupXSize: 1331
OS2SupYSize: 1433
OS2SupXOff: 0
OS2SupYOff: 983
OS2StrikeYSize: 102
OS2StrikeYPos: 530
OS2CapHeight: 1638
OS2XHeight: 1082
OS2Vendor: '    '
OS2CodePages: 00000041.20080000
OS2UnicodeRanges: 80002003.80000000.00000008.00000000
Lookup: 1 9 0 "Single Substitution 0" { "Single Substitution 0 subtable"  } []
Lookup: 1 9 0 "Single Substitution 1" { "Single Substitution 1-2"  "Single Substitution 1-1"  "Single Substitution 1-3"  } []
Lookup: 1 9 0 "Single Substitution 2" { "Single Substitution 2-1"  } []
Lookup: 1 9 0 "Single Substitution 3" { "Single Substitution 3-1"  } []
Lookup: 1 9 0 "Single Substitution 4" { "Single Substitution 4-1"  } []
Lookup: 1 9 0 "Single Substitution 5" { "Single Substitution 5-1"  } []
Lookup: 1 9 0 "'fina' Terminal Forms in Arabic lookup 1" { "'fina' Terminal Forms in Arabic lookup 1 subtable"  } ['fina' ('DFLT' <'dflt' > 'arab' <'FAR ' 'KUR ' 'URD ' 'dflt' > ) ]

StartChar: exclam
Encoding: 33 33 1
GlifName: exclam
Width: 617
VWidth: 2799
GlyphClass: 2
Flags: HW
LayerCount: 2
Fore
SplineSet
115 185 m 4
 115 291 202 369 309 369 c 4
 416 369 502 291 502 185 c 4
 502 79 415 1 309 1 c 4
 199 1 115 79 115 185 c 4
151 1411 m 5
 471 1411 l 5
 454 499 l 5
 169 499 l 5
 151 1411 l 5
EndSplineSet
EndChar

StartChar: period
Encoding: 46 46 2
GlifName: period
Width: 637
VWidth: 2799
GlyphClass: 2
Flags: HW
LayerCount: 2
Fore
SplineSet
125 184 m 4
 125 290 212 368 319 368 c 4
 426 368 512 290 512 184 c 4
 512 78 425 0 319 0 c 4
 209 0 125 78 125 184 c 4
EndSplineSet
EndChar

StartChar: colon
Encoding: 58 58 3
GlifName: colon
Width: 637
VWidth: 2799
GlyphClass: 2
Flags: HW
LayerCount: 2
Fore
SplineSet
125 775 m 4
 125 881 212 959 319 959 c 4
 426 959 512 881 512 775 c 4
 512 669 425 591 319 591 c 4
 209 591 125 669 125 775 c 4
125 185 m 4
 125 291 212 369 319 369 c 4
 426 369 512 291 512 185 c 4
 512 79 425 1 319 1 c 4
 209 1 125 79 125 185 c 4
EndSplineSet
EndChar

StartChar: uni060C
Encoding: 1548 1548 5
GlifName: afii57388
Width: 637
VWidth: 2807
GlyphClass: 2
Flags: HW
LayerCount: 2
Fore
SplineSet
530 595 m 1
 455 526 401 454 381 353 c 1
 459 334 504 270 504 178 c 0
 504 67 436 0 321 0 c 0
 186 0 118 78 118 208 c 0
 118 425 221 595 377 717 c 1
 530 595 l 1
EndSplineSet
EndChar

StartChar: uni0615
Encoding: 1557 1557 6
GlifName: uni0615
Width: 0
VWidth: 2748
GlyphClass: 4
Flags: HW
AnchorPoint: "Anchor110" 444 1207 mark 0
AnchorPoint: "Anchor109" 444 1207 mark 0
AnchorPoint: "Anchor101" 443 1984 basemark 0
AnchorPoint: "Anchor101" 444 1207 mark 0
LayerCount: 2
Fore
SplineSet
405 1383 m 2
 588 1383 683 1422 683 1501 c 0
 683 1556 643 1598 584 1598 c 0
 506 1598 420 1522 330 1382 c 1
 405 1383 l 2
239 1382 m 1
 251 1402 264 1422 276 1441 c 1
 276 1923 l 1
 362 1923 l 1
 362 1563 l 1
 429 1646 501 1691 580 1691 c 0
 696 1691 772 1612 772 1505 c 0
 771 1363 650 1291 407 1291 c 2
 127 1291 l 1
 127 1382 l 1
 239 1382 l 1
EndSplineSet
Validated: 1
EndChar

StartChar: uni061B
Encoding: 1563 1563 7
GlifName: uni061B_
Width: 637
VWidth: 2807
GlyphClass: 2
Flags: HW
LayerCount: 2
Fore
SplineSet
125 185 m 0
 125 291 212 369 319 369 c 0
 426 369 512 291 512 185 c 0
 512 79 425 1 319 1 c 0
 209 1 125 79 125 185 c 0
530 1098 m 5
 455 1029 401 957 381 856 c 5
 459 837 504 773 504 681 c 4
 504 570 436 503 321 503 c 4
 186 503 118 581 118 711 c 4
 118 928 221 1098 377 1220 c 5
 530 1098 l 5
EndSplineSet
EndChar

StartChar: uni061F
Encoding: 1567 1567 8
GlifName: uni061F_
Width: 902
VWidth: 2799
GlyphClass: 2
Flags: HW
LayerCount: 2
Fore
SplineSet
60 1006 m 0
 60 1245.73730469 261.463867188 1412.05175781 491.19140625 1412.05175781 c 0
 614.102539062 1412.05175781 744.676757812 1364.44335938 859 1253 c 1
 726 1005 l 1
 646.108398438 1078.6640625 565.788085938 1109.67285156 498.521484375 1109.67285156 c 0
 406.654296875 1109.67285156 339 1058.43164062 339 1004 c 0
 339 869 638 839 638 519 c 2
 638 499 l 1
 349 499 l 1
 349 517 l 2
 349 757 60 680 60 1006 c 0
299 185 m 0
 299 291 386 369 493 369 c 0
 600 369 686 291 686 185 c 0
 686 79 599 1 493 1 c 0
 383 1 299 79 299 185 c 0
EndSplineSet
EndChar

StartChar: uni0621
Encoding: 1569 1569 9
GlifName: uni0621
Width: 909
VWidth: 3151
GlyphClass: 2
Flags: HW
AnchorPoint: "Anchor107" 504 -105 basechar 0
AnchorPoint: "Anchor110" 458 1086 basechar 0
LayerCount: 2
Fore
SplineSet
392 498 m 0
 392 451 440 390 483 362 c 1
 627 409 700 421 830 445 c 1
 830 168 l 1
 626 123 365 24 113 -105 c 5
 67 169 l 1
 115 195 185 222 233 245 c 1
 184 304 148 391 148 487 c 0
 148 689 293 856 501 856 c 0
 646 856 728 813 818 748 c 1
 728 524 l 1
 666 554 590 586 514 586 c 0
 461 586 392 550 392 498 c 0
EndSplineSet
Position2: "Single Positioning lookup 2 subtable" dx=0 dy=0 dh=-104 dv=0
Position2: "Single Positioning lookup 1 subtable" dx=0 dy=0 dh=-104 dv=0
EndChar

StartChar: uni0622
Encoding: 1570 1570 10
GlifName: uni0622
Width: 556
VWidth: 2834
GlyphClass: 3
Flags: HW
AnchorPoint: "Anchor110" 282 1771 basechar 0
AnchorPoint: "Anchor107" 274 -203 basechar 0
LayerCount: 2
Fore
SplineSet
373.205078125 1565.89648438 m 2
 380.1953125 1562.71289062 387.131835938 1561.29296875 394.016601562 1561.29296875 c 0
 426.166992188 1561.29296875 447.16015625 1583.26171875 476.959960938 1610.140625 c 2
 536.995117188 1667.19238281 l 1
 660.103515625 1554.27050781 l 1
 592.306640625 1490.10546875 l 2
 525.990234375 1427.34179688 475.267578125 1388.98242188 411.161132812 1388.98242188 c 0
 382.299804688 1388.98242188 350.725585938 1396.75683594 313.794921875 1413.58007812 c 2
 184.794921875 1472.34179688 l 2
 167.911132812 1480.03222656 153.551757812 1483.63867188 140.420898438 1483.63867188 c 0
 102.890625 1483.63867188 75.38671875 1454.17773438 27.6044921875 1406.39550781 c 2
 -39.462890625 1339.328125 l 1
 -162.578125 1451.25585938 l 1
 -93.7841796875 1522.421875 l 2
 -11.6533203125 1607.38476562 54.3984375 1657.55175781 121.990234375 1657.55175781 c 0
 157.668945312 1657.55175781 196.5625 1646.36035156 244.205078125 1624.65820312 c 2
 373.205078125 1565.89648438 l 2
EndSplineSet
Refer: 544 -1 N 1 0 0 1 0 0 3
Position2: "Single Positioning lookup 7-1" dx=0 dy=0 dh=120 dv=0
Position2: "Single Positioning lookup 2 subtable" dx=0 dy=0 dh=-147 dv=0
Position2: "Single Positioning lookup 1 subtable" dx=0 dy=0 dh=-84 dv=0
Position2: "Single Positioning lookup 0 subtable" dx=0 dy=0 dh=335 dv=0
LCarets2: 1 0
Ligature2: "'liga' Standard Ligatures in Arabic lookup 9 subtable" uni0627 uni0653
Substitution2: "'fina' Terminal Forms in Arabic lookup 1 subtable" uniFE82
EndChar

StartChar: uni0627
Encoding: 1575 1575 15
GlifName: uni0627
Width: 556
VWidth: 3091
GlyphClass: 2
Flags: HW
AnchorPoint: "Anchor110" 270 1555 basechar 0
AnchorPoint: "Anchor107" 275 -252 basechar 0
LayerCount: 2
Fore
SplineSet
425 1417 m 1
 425 1 l 1
 132 1 l 1
 132 1417 l 1
 425 1417 l 1
EndSplineSet
Validated: 1
Position2: "Single Positioning lookup 2 subtable" dx=0 dy=0 dh=-147 dv=0
Position2: "Single Positioning lookup 1 subtable" dx=0 dy=0 dh=-84 dv=0
Position2: "Single Positioning lookup 0 subtable" dx=0 dy=0 dh=137 dv=0
Substitution2: "'fina' Terminal Forms in Arabic lookup 1 subtable" uniFE8E
EndChar

StartChar: uni062D
Encoding: 1581 1581 21
GlifName: uni062D_
Width: 1451
VWidth: 3091
GlyphClass: 2
Flags: HW
AnchorPoint: "Anchor107" 739 -855 basechar 0
AnchorPoint: "Anchor110" 645 1311 basechar 0
LayerCount: 2
Fore
SplineSet
1354 729 m 1
 1353 453 l 1
 959 420 350 248 350 -104 c 0
 350 -291 562 -390 792 -390 c 0
 987 -390 1164 -348 1299 -297 c 1
 1387 -587 l 1
 1200 -660 997 -691 808 -691 c 0
 419 -691 80 -528 80 -110 c 0
 80 285 428 517 753 615 c 1
 697 637 612 664 578 675 c 0
 547 685 523 689 515 689 c 0
 432 689 368 631 324 573 c 2
 282 517 l 1
 44 636 l 1
 94 717 l 2
 190 873 334 991 516 991 c 4
 650 991 753 937 859 885 c 4
 1109 762 1180 739 1354 729 c 1
EndSplineSet
Substitution2: "'fina' Terminal Forms in Arabic lookup 1 subtable" uniFEA2
Substitution2: "'medi' Medial Forms in Arabic lookup 2 subtable" uniFEA4
Substitution2: "'init' Initial Forms in Arabic lookup 3 subtable" uniFEA3
EndChar

StartChar: uni062F
Encoding: 1583 1583 23
GlifName: uni062F_
Width: 1040
VWidth: 3091
GlyphClass: 2
Flags: HW
AnchorPoint: "Anchor110" 414 1294 basechar 0
AnchorPoint: "Anchor107" 477 -255 basechar 0
LayerCount: 2
Fore
SplineSet
356 306 m 0
 502 306 690 325 690 445 c 0
 690 571 469 738 248 839 c 1
 380 1118 l 5
 652 986 961 786 961 458 c 0
 961 124 716 2 371 2 c 0
 260 2 170 8 79 28 c 1
 79 337 l 1
 165 319 281 306 356 306 c 0
EndSplineSet
Validated: 1
Position2: "Single Positioning lookup 2 subtable" dx=0 dy=0 dh=-168 dv=0
Position2: "Single Positioning lookup 1 subtable" dx=0 dy=0 dh=-157 dv=0
Substitution2: "'fina' Terminal Forms in Arabic lookup 1 subtable" uniFEAA
EndChar

StartChar: uni0631
Encoding: 1585 1585 25
GlifName: uni0631
Width: 752
VWidth: 2242
GlyphClass: 2
Flags: HW
AnchorPoint: "Anchor110" 438 948 basechar 0
AnchorPoint: "Anchor107" 383 -654 basechar 0
LayerCount: 2
Fore
SplineSet
48 -547 m 1
 -62 -259 l 1
 220 -198 400 -106 400 172 c 0
 400 295 350 466 306 597 c 1
 595 691 l 1
 648 542 677 358 677 198 c 4
 677 -239 426 -471 48 -547 c 1
EndSplineSet
Position2: "Single Positioning lookup 2 subtable" dx=0 dy=0 dh=-31 dv=0
Position2: "Single Positioning lookup 1 subtable" dx=0 dy=0 dh=-31 dv=0
Substitution2: "'fina' Terminal Forms in Arabic lookup 1 subtable" uniFEAE
EndChar

StartChar: uni0633
Encoding: 1587 1587 27
GlifName: uni0633
Width: 2500
VWidth: 2144
GlyphClass: 2
Flags: HW
AnchorPoint: "Anchor110" 1764 1064 basechar 0
AnchorPoint: "Anchor107" 723 -744 basechar 0
LayerCount: 2
Fore
SplineSet
1513 0 m 0
 1456 0 1400 22 1358 46 c 1
 1314 -300 1093 -514 718 -514 c 0
 287 -514 82 -244 82 122 c 4
 82 284 119 461 187 635 c 1
 446 536 l 1
 395 392 356 253 356 137 c 4
 356 -51 441 -208 718 -208 c 0
 997 -208 1092 -64 1092 136 c 0
 1092 277 1037 433 976 580 c 1
 1261 686 l 1
 1330 476 l 2
 1359 387 1410 311 1515 310 c 0
 1620 310 1660 374 1660 486 c 0
 1660 513 1652 624 1646 695 c 1
 1914 728 l 1
 1936 461 l 2
 1941 384 1973 310 2052 310 c 0
 2129 310 2151 381 2151 461 c 0
 2151 558 2117 702 2093 801 c 1
 2370 873 l 1
 2402 748 2422 619 2422 491 c 0
 2422 226 2331 1 2056 0 c 0
 1936 0 1852 56 1795 123 c 1
 1728 58 1632 0 1513 0 c 0
EndSplineSet
Position2: "Single Positioning lookup 2 subtable" dx=0 dy=0 dh=-168 dv=0
Position2: "Single Positioning lookup 1 subtable" dx=0 dy=0 dh=-84 dv=0
Substitution2: "'fina' Terminal Forms in Arabic lookup 1 subtable" uniFEB2
Substitution2: "'medi' Medial Forms in Arabic lookup 2 subtable" uniFEB4
Substitution2: "'init' Initial Forms in Arabic lookup 3 subtable" uniFEB3
EndChar

StartChar: uni0635
Encoding: 1589 1589 29
GlifName: uni0635
Width: 2616
VWidth: 3091
GlyphClass: 2
Flags: HW
AnchorPoint: "Anchor107" 723 -744 basechar 0
AnchorPoint: "Anchor110" 2060 1241 basechar 0
LayerCount: 2
Fore
SplineSet
718 -514 m 0
 287 -514 82 -244 82 122 c 4
 82 284 119 461 187 635 c 1
 446 536 l 1
 395 392 356 253 356 137 c 4
 356 -51 441 -208 718 -208 c 0
 998 -208 1092 -64 1092 136 c 0
 1092 277 1037 433 976 580 c 1
 1261 686 l 1
 1329 478 l 2
 1349 416 1370 350 1400 350 c 1
 1570 629 1791 926 2096 926 c 0
 2354 926 2537 749 2537 502 c 0
 2537 111 2172 0 1748 0 c 2
 1696 0 l 2
 1562 0 1452 20 1358 46 c 1
 1314 -300 1094 -514 718 -514 c 0
2103 623 m 0
 1948 623 1788 453 1687 310 c 1
 1764 310 l 2
 2013 310 2259 329 2259 481 c 0
 2259 568 2191 623 2103 623 c 0
EndSplineSet
Position2: "Single Positioning lookup 2 subtable" dx=0 dy=0 dh=-168 dv=0
Position2: "Single Positioning lookup 1 subtable" dx=0 dy=0 dh=-157 dv=0
Substitution2: "'fina' Terminal Forms in Arabic lookup 1 subtable" uniFEBA
Substitution2: "'medi' Medial Forms in Arabic lookup 2 subtable" uniFEBC
Substitution2: "'init' Initial Forms in Arabic lookup 3 subtable" uniFEBB
EndChar

StartChar: uni0637
Encoding: 1591 1591 31
GlifName: uni0637
Width: 1577
VWidth: 3091
GlyphClass: 2
Flags: HW
AnchorPoint: "Anchor110" 524 1559 basechar 0
AnchorPoint: "Anchor107" 692 -252 basechar 0
LayerCount: 2
Fore
SplineSet
1064 623 m 4
 909 623 749 453 648 310 c 5
 725 310 l 6
 974 310 1220 329 1220 481 c 4
 1220 568 1152 623 1064 623 c 4
328 310 m 1
 345 337 360 358 379 384 c 1
 379 1417 l 1
 672 1417 l 1
 672 745 l 1
 791 853 906 925 1057 926 c 0
 1315 926 1498 749 1498 502 c 0
 1498 111 1133 0 709 0 c 2
 69 0 l 1
 69 310 l 1
 328 310 l 1
EndSplineSet
Validated: 1
Position2: "Single Positioning lookup 2 subtable" dx=0 dy=0 dh=-168 dv=0
Position2: "Single Positioning lookup 1 subtable" dx=0 dy=0 dh=-157 dv=0
Substitution2: "'fina' Terminal Forms in Arabic lookup 1 subtable" uniFEC2
Substitution2: "'medi' Medial Forms in Arabic lookup 2 subtable" uniFEC4
Substitution2: "'init' Initial Forms in Arabic lookup 3 subtable" uniFEC3
EndChar

StartChar: uni0639
Encoding: 1593 1593 33
GlifName: uni0639
Width: 1327
VWidth: 3091
GlyphClass: 2
Flags: HW
AnchorPoint: "Anchor107" 718 -865 basechar 0
AnchorPoint: "Anchor110" 712 1446 basechar 0
LayerCount: 2
Fore
SplineSet
1148 540 m 1
 1131 248 l 1
 1071 250 1028 250 983 250 c 0
 646 250 349 154 349 -106 c 0
 349 -293 533 -392 735 -392 c 0
 899 -392 1033 -357 1175 -300 c 1
 1258 -589 l 1
 1099 -652 915 -691 746 -691 c 0
 391 -691 79 -527 79 -115 c 0
 79 133 185 303 378 430 c 1
 324 488 284 595 284 703 c 0
 284 947 498 1154 734 1154 c 0
 873 1154 1010 1094 1141 1000 c 1
 1029 747 l 1
 943 798 866 842 754 842 c 0
 658 842 561 785 561 689 c 0
 561 618 614 552 648 528 c 1
 767 541 861 550 962 550 c 0
 1020 550 1079 547 1148 540 c 1
EndSplineSet
Validated: 1
Position2: "Single Positioning lookup 3 subtable" dx=0 dy=0 dh=-93 dv=0
Substitution2: "'fina' Terminal Forms in Arabic lookup 1 subtable" uniFECA
Substitution2: "'medi' Medial Forms in Arabic lookup 2 subtable" uniFECC
Substitution2: "'init' Initial Forms in Arabic lookup 3 subtable" uniFECB
EndChar

StartChar: uni0640
Encoding: 1600 1600 35
GlifName: afii57440
Width: 565
VWidth: 3091
GlyphClass: 2
Flags: HW
AnchorPoint: "Anchor110" 286 977 basechar 0
AnchorPoint: "Anchor107" 290 -245 basechar 0
LayerCount: 2
Fore
SplineSet
-20 310 m 5
 585 310 l 5
 585 0 l 1
 -20 0 l 1
 -20 310 l 5
EndSplineSet
Validated: 1
Position2: "Single Positioning lookup 2 subtable" dx=0 dy=0 dh=-168 dv=0
Position2: "Single Positioning lookup 1 subtable" dx=0 dy=0 dh=-157 dv=0
EndChar

StartChar: uni0643
Encoding: 1603 1603 38
GlifName: uni0643
Width: 1875
VWidth: 3094
GlyphClass: 2
Flags: HW
AnchorPoint: "Anchor110" 948 1322 basechar 0
AnchorPoint: "Anchor107" 932 -237 basechar 0
LayerCount: 2
Fore
SplineSet
885 310 m 6
 1033 310 l 6
 1387 310 1451 344 1451 523 c 6
 1451 1417 l 5
 1744 1417 l 5
 1744 526 l 6
 1744 56 1478 -5.24148830035e-14 1050 0 c 6
 885 0 l 6
 438 0 79 115 79 536 c 4
 79 662 110 784 152 884 c 5
 409 787 l 5
 386 723 354 629 354 551 c 4
 354 350 608 310 885 310 c 6
EndSplineSet
Refer: 420 -1 N 1.035 0 0 1.035 -13 91 2
Position2: "Single Positioning lookup 2 subtable" dx=0 dy=0 dh=-147 dv=0
Position2: "Single Positioning lookup 1 subtable" dx=0 dy=0 dh=-84 dv=0
Position2: "Single Positioning lookup 0 subtable" dx=0 dy=0 dh=137 dv=0
Substitution2: "'fina' Terminal Forms in Arabic lookup 1 subtable" uniFEDA
Substitution2: "'medi' Medial Forms in Arabic lookup 2 subtable" uniFEDC
Substitution2: "'init' Initial Forms in Arabic lookup 3 subtable" uniFEDB
EndChar

StartChar: uni0644
Encoding: 1604 1604 39
GlifName: uni0644
Width: 1381
VWidth: 3091
GlyphClass: 2
Flags: HW
AnchorPoint: "Anchor107" 684 -716 basechar 0
AnchorPoint: "Anchor110" 591 1113 basechar 0
LayerCount: 2
Fore
SplineSet
1250 176 m 2
 1250 -246 1088 -496 680 -496 c 0
 285 -496 79 -275 79 113 c 4
 79 270 119 448 183 603 c 1
 442 504 l 1
 396 385 351 231 351 113 c 4
 351 -82 460 -190 680 -190 c 0
 906 -190 957 -51 957 158 c 2
 957 1417 l 1
 1250 1417 l 1
 1250 176 l 2
EndSplineSet
Position2: "Single Positioning lookup 2 subtable" dx=0 dy=0 dh=-63 dv=0
Position2: "Single Positioning lookup 1 subtable" dx=0 dy=0 dh=-61 dv=0
Position2: "Single Positioning lookup 0 subtable" dx=0 dy=0 dh=137 dv=0
Substitution2: "'fina' Terminal Forms in Arabic lookup 1 subtable" uniFEDE
Substitution2: "'medi' Medial Forms in Arabic lookup 2 subtable" uniFEE0
Substitution2: "'init' Initial Forms in Arabic lookup 3 subtable" uniFEDF
EndChar

StartChar: uni0645
Encoding: 1605 1605 40
GlifName: uni0645
Width: 1278
VWidth: 2744
GlyphClass: 2
Flags: HW
AnchorPoint: "Anchor110" 772 1085 basechar 0
AnchorPoint: "Anchor107" 237 -780 basechar 0
LayerCount: 2
Fore
SplineSet
929 399 m 4
 929 469 872 540 784 540 c 0
 703 540 646 439 620 365 c 1
 699 329 790 288 849 288 c 0
 910 288 929 344 929 399 c 4
353 410 m 1
 420 625 568 837 780 837 c 0
 1033 837 1199 664 1199 397 c 0
 1199 174 1076 -16 844 -16 c 0
 702 -16 497 109 421 109 c 0
 371 109 358 -49 358 -220 c 0
 358 -398 372 -591 377 -637 c 1
 83 -637 l 1
 75 -489 68 -348 68 -218 c 0
 68 143 104 366 353 410 c 1
EndSplineSet
Position2: "Single Positioning lookup 2 subtable" dx=0 dy=0 dh=-168 dv=0
Position2: "Single Positioning lookup 1 subtable" dx=0 dy=0 dh=-157 dv=0
Substitution2: "'init' Initial Forms in Arabic lookup 3 subtable" uniFEE3
Substitution2: "'medi' Medial Forms in Arabic lookup 2 subtable" uniFEE4
Substitution2: "'fina' Terminal Forms in Arabic lookup 1 subtable" uniFEE2
EndChar

StartChar: uni0647
Encoding: 1607 1607 42
GlifName: uni0647
Width: 1015
VWidth: 3091
GlyphClass: 2
Flags: HW
AnchorPoint: "Anchor110" 454 1295 basechar 0
AnchorPoint: "Anchor107" 481 -258 basechar 0
LayerCount: 2
Fore
SplineSet
666 404 m 0
 666 462 567 555 496 606 c 1
 436 554 350 457 350 398 c 0
 350 339 414 310 507 310 c 0
 608 310 666 338 666 404 c 0
284 789 m 1
 244 824 l 1
 424 1054 l 1
 658 871 937 677 937 407 c 0
 937 155 756 4 508 4 c 0
 224 4 78 161 78 370 c 0
 78 540 172 658 284 789 c 1
EndSplineSet
Validated: 1
Position2: "Single Positioning lookup 2 subtable" dx=0 dy=0 dh=-168 dv=0
Position2: "Single Positioning lookup 1 subtable" dx=0 dy=0 dh=-157 dv=0
Substitution2: "'fina' Terminal Forms in Arabic lookup 1 subtable" uniFEEA
Substitution2: "'medi' Medial Forms in Arabic lookup 2 subtable" uniFEEC
Substitution2: "'init' Initial Forms in Arabic lookup 3 subtable" uniFEEB
EndChar

StartChar: uni0648
Encoding: 1608 1608 43
GlifName: uni0648
Width: 970
VWidth: 2242
GlyphClass: 2
Flags: HW
AnchorPoint: "Anchor107" 461 -644 basechar 0
AnchorPoint: "Anchor110" 475 1138 basechar 0
LayerCount: 2
Fore
SplineSet
892 232 m 0
 892 -251 607 -464 175 -547 c 5
 68 -259 l 5
 333 -208 530 -120 582 7 c 1
 551 1 520 -2 495 -2 c 0
 240 -2 79 102 79 368 c 0
 79 585 210 862 467 862 c 0
 770 862 892 540 892 232 c 0
489 307 m 0
 546 307 593 314 619 320 c 1
 607 397 573 561 465 561 c 0
 374 561 348 439 348 380 c 0
 348 313 413 307 489 307 c 0
EndSplineSet
Position2: "Single Positioning lookup 2 subtable" dx=0 dy=0 dh=-31 dv=0
Position2: "Single Positioning lookup 1 subtable" dx=0 dy=0 dh=-31 dv=0
Substitution2: "'fina' Terminal Forms in Arabic lookup 1 subtable" uniFEEE
EndChar

StartChar: uni0649
Encoding: 1609 1609 44
GlifName: uni0649
Width: 1485
VWidth: 3091
GlyphClass: 2
Flags: HW
AnchorPoint: "Anchor107" 716 -732 basechar 0
AnchorPoint: "Anchor110" 532 893 basechar 0
LayerCount: 2
Fore
SplineSet
718 -504 m 0
 287 -504 82 -234 82 132 c 0
 82 294 119 471 187 645 c 1
 446 546 l 1
 395 402 356 263 356 147 c 0
 356 -41 441 -198 718 -198 c 0
 1026 -198 1153 -70 1153 -8 c 0
 1153 6 1147 10 1127 10 c 2
 965 10 l 2
 840 10 639 29 639 350 c 0
 639 629 831 900 1131 900 c 0
 1236 900 1340 867 1422 807 c 1
 1324 532 l 1
 1250 572 1184 586 1133 586 c 0
 994 586 911 486 911 351 c 0
 911 321 938 320 965 320 c 2
 1107 320 l 2
 1344 320 1419 201 1419 37 c 0
 1419 -261 1173 -504 718 -504 c 0
EndSplineSet
Substitution2: "'fina' Terminal Forms in Arabic lookup 1 subtable" uniFEF0
Substitution2: "'medi' Medial Forms in Arabic lookup 2 subtable" uniFBE9
Substitution2: "'init' Initial Forms in Arabic lookup 3 subtable" uniFBE8
EndChar

StartChar: uni064B
Encoding: 1611 1611 46
GlifName: uni064B_
Width: 0
VWidth: 2347
GlyphClass: 4
Flags: HW
AnchorPoint: "Anchor110" 301 1064 mark 0
AnchorPoint: "Anchor109" 301 1064 mark 0
AnchorPoint: "Anchor101" 270 1522 basemark 0
AnchorPoint: "Anchor101" 301 1064 mark 0
LayerCount: 2
Fore
SplineSet
50 1009 m 5
 50 1125 l 5
 496 1308 l 5
 496 1191 l 5
 50 1009 l 5
50 1214 m 5
 50 1330 l 5
 496 1513 l 5
 496 1396 l 5
 50 1214 l 5
EndSplineSet
Validated: 1
EndChar

StartChar: uni064C
Encoding: 1612 1612 47
GlifName: uni064C_
Width: 0
VWidth: 2347
GlyphClass: 4
Flags: HW
AnchorPoint: "Anchor101" 425 950 mark 0
AnchorPoint: "Anchor101" 416 1469 basemark 0
AnchorPoint: "Anchor109" 425 950 mark 0
AnchorPoint: "Anchor110" 425 950 mark 0
LayerCount: 2
Fore
SplineSet
528 1040 m 1
 456 942 312 892 133 888 c 1
 95 970 l 1
 115 1024 126 1069 126 1095 c 0
 126 1125 116 1137 86 1137 c 0
 68 1137 32 1128 5 1120 c 1
 -6 1223 l 1
 32 1236 72 1245 103 1245 c 0
 185 1245 220 1187 220 1099 c 0
 220 1069 217 1034 209 994 c 1
 277 1004 368 1019 422 1065 c 1
 333 1077 245 1130 245 1246 c 0
 245 1340 321 1419 421 1419 c 0
 521 1419 596 1349 596 1245 c 0
 596 1207 589 1166 574 1127 c 1
 583 1126 598 1124 612 1123 c 1
 601 1033 l 1
 572 1034 553 1036 528 1040 c 1
472 1150 m 1
 484 1181 496 1207 496 1244 c 0
 496 1288 465 1317 425 1317 c 0
 378 1317 346 1280 346 1242 c 0
 346 1187 408 1167 472 1150 c 1
EndSplineSet
EndChar

StartChar: uni064D
Encoding: 1613 1613 48
GlifName: uni064D_
Width: 0
VWidth: 2347
GlyphClass: 4
Flags: HW
AnchorPoint: "Anchor107" 253 -210 mark 0
AnchorPoint: "Anchor106" 253 -210 mark 0
AnchorPoint: "Anchor100" 304 -605 basemark 0
AnchorPoint: "Anchor100" 253 -210 mark 0
LayerCount: 2
Fore
SplineSet
49 -653 m 1
 49 -537 l 1
 495 -354 l 1
 495 -471 l 1
 49 -653 l 1
49 -448 m 1
 49 -332 l 1
 495 -149 l 1
 495 -266 l 1
 49 -448 l 1
EndSplineSet
Validated: 1
EndChar

StartChar: uni064E
Encoding: 1614 1614 49
GlifName: uni064E_
Width: 0
VWidth: 2347
GlyphClass: 4
Flags: HW
AnchorPoint: "Anchor110" 298 1183 mark 0
AnchorPoint: "Anchor109" 298 1183 mark 0
AnchorPoint: "Anchor101" 293 1430 basemark 0
AnchorPoint: "Anchor101" 298 1183 mark 0
LayerCount: 2
Fore
SplineSet
55 1126 m 1
 55 1243 l 1
 501 1425 l 1
 501 1308 l 1
 55 1126 l 1
EndSplineSet
Validated: 1
EndChar

StartChar: uni064F
Encoding: 1615 1615 50
GlifName: uni064F_
Width: 0
VWidth: 2347
GlyphClass: 4
Flags: HW
AnchorPoint: "Anchor110" 290 968 mark 0
AnchorPoint: "Anchor109" 290 968 mark 0
AnchorPoint: "Anchor101" 281 1487 basemark 0
AnchorPoint: "Anchor101" 290 968 mark 0
LayerCount: 2
Fore
SplineSet
465 1053 m 1
 440 1054 424 1055 393 1060 c 1
 320 964 195 918 25 909 c 1
 9 1005 l 1
 132 1016 236 1043 288 1085 c 1
 199 1097 110 1149 110 1265 c 0
 110 1359 186 1439 286 1439 c 0
 386 1439 461 1368 461 1264 c 0
 461 1226 453 1185 439 1147 c 1
 453 1145 461 1144 477 1143 c 1
 465 1053 l 1
337 1170 m 1
 350 1201 361 1236 361 1263 c 0
 361 1308 330 1337 290 1337 c 0
 243 1337 212 1298 212 1261 c 0
 212 1205 273 1187 337 1170 c 1
EndSplineSet
EndChar

StartChar: uni0650
Encoding: 1616 1616 51
GlifName: uni0650
Width: 0
VWidth: 2347
GlyphClass: 4
Flags: HW
AnchorPoint: "Anchor107" 272 -268 mark 0
AnchorPoint: "Anchor106" 272 -268 mark 0
AnchorPoint: "Anchor100" 320 -492 basemark 0
AnchorPoint: "Anchor100" 272 -268 mark 0
LayerCount: 2
Fore
SplineSet
49 -520 m 1
 49 -403 l 1
 495 -221 l 1
 495 -338 l 1
 49 -520 l 1
EndSplineSet
Validated: 1
EndChar

StartChar: uni0651
Encoding: 1617 1617 52
GlifName: uni0651
Width: 0
VWidth: 2425
GlyphClass: 4
Flags: HW
AnchorPoint: "Anchor110" 333 998 mark 0
AnchorPoint: "Anchor109" 333 998 mark 0
AnchorPoint: "Anchor101" 304 1388 basemark 0
AnchorPoint: "Anchor101" 333 998 mark 0
LayerCount: 2
Fore
SplineSet
354 1317 m 1
 357 1238 362 1130 427 1130 c 0
 464 1130 475 1164 475 1208 c 0
 475 1254 463 1306 455 1345 c 1
 564 1367 l 1
 578 1321 585 1271 585 1224 c 4
 585 1103 542 1017 436 1017 c 0
 396 1017 352 1023 318 1061 c 1
 290 991 223 972 164 972 c 0
 58 972 14 1059 14 1162 c 0
 14 1199 20 1237 30 1275 c 1
 131 1259 l 1
 125 1233 119 1202 119 1173 c 0
 119 1129 132 1092 176 1092 c 0
 252 1092 254 1140 254 1267 c 2
 253 1307 l 1
 354 1317 l 1
EndSplineSet
Validated: 1
EndChar

StartChar: uni0652
Encoding: 1618 1618 53
GlifName: uni0652
Width: 0
VWidth: 2347
GlyphClass: 4
Flags: HW
AnchorPoint: "Anchor110" 216 977 mark 0
AnchorPoint: "Anchor109" 216 977 mark 0
AnchorPoint: "Anchor101" 213 1386 basemark 0
AnchorPoint: "Anchor101" 216 977 mark 0
LayerCount: 2
Fore
SplineSet
132 1162 m 0
 132 1115 169 1078 217 1078 c 0
 265 1078 301 1114 301 1162 c 0
 301 1210 264 1248 217 1248 c 0
 170 1248 132 1209 132 1162 c 0
31 1162 m 0
 31 1264 115 1348 217 1348 c 0
 319 1348 402 1264 402 1162 c 0
 402 1060 319 977 217 977 c 0
 115 977 31 1060 31 1162 c 0
EndSplineSet
Validated: 1
EndChar

StartChar: uni0653
Encoding: 1619 1619 54
GlifName: uni0653
Width: 0
VWidth: 2709
GlyphClass: 4
Flags: HW
AnchorPoint: "Anchor110" 310 1066 mark 0
AnchorPoint: "Anchor109" 310 1066 mark 0
AnchorPoint: "Anchor101" 298 1405 basemark 0
AnchorPoint: "Anchor101" 310 1066 mark 0
LayerCount: 2
Fore
SplineSet
227 1196 m 4
 192 1196 87 1092 62 1067 c 1
 -34 1153 l 1
 14 1205 145 1334 223 1334 c 0
 285 1334 380 1245 443 1245 c 0
 473 1245 561 1325 585 1350 c 1
 681 1264 l 1
 635 1218 517 1107 447 1107 c 0
 386 1107 276 1196 227 1196 c 4
EndSplineSet
Validated: 1
EndChar

StartChar: uni0657
Encoding: 1623 1623 57
GlifName: uni0657
Width: 0
VWidth: 2347
GlyphClass: 4
Flags: HW
AnchorPoint: "Anchor110" 284 961 mark 0
AnchorPoint: "Anchor109" 284 961 mark 0
AnchorPoint: "Anchor101" 316 1559 basemark 0
AnchorPoint: "Anchor101" 284 961 mark 0
LayerCount: 2
Fore
SplineSet
93 1374 m 1
 118 1373 134 1372 165 1367 c 1
 238 1463 363 1509 533 1518 c 1
 549 1422 l 1
 426 1411 322 1384 270 1342 c 1
 359 1330 448 1278 448 1162 c 0
 448 1068 372 988 272 988 c 0
 172 988 97 1059 97 1163 c 0
 97 1201 105 1242 119 1280 c 1
 105 1282 97 1283 81 1284 c 1
 93 1374 l 1
221 1257 m 1
 208 1226 197 1191 197 1164 c 0
 197 1119 228 1090 268 1090 c 0
 315 1090 346 1129 346 1166 c 4
 346 1222 285 1240 221 1257 c 1
EndSplineSet
Validated: 1
EndChar

StartChar: uni065A
Encoding: 1626 1626 58
GlifName: uni065A_
Width: 0
VWidth: 2347
GlyphClass: 4
Flags: HW
AnchorPoint: "Anchor110" 584 1444 mark 0
AnchorPoint: "Anchor109" 584 1444 mark 0
AnchorPoint: "Anchor101" 579 1861 basemark 0
AnchorPoint: "Anchor101" 584 1444 mark 0
LayerCount: 2
Fore
SplineSet
519 1456 m 5
 355 1790 l 1
 463 1843 l 1
 581 1603 l 1
 699 1843 l 1
 807 1790 l 1
 643 1456 l 1
 519 1456 l 5
EndSplineSet
Validated: 1
EndChar

StartChar: uni0660
Encoding: 1632 1632 59
GlifName: afii57392
Width: 781
VWidth: 2614
GlyphClass: 2
Flags: HW
LayerCount: 2
Fore
SplineSet
391 184 m 1
 115 461 l 5
 389 735 l 1
 666 460 l 1
 391 184 l 1
EndSplineSet
Validated: 1
EndChar

StartChar: uni0661
Encoding: 1633 1633 60
GlifName: afii57393
Width: 651
VWidth: 3091
GlyphClass: 2
Flags: HW
LayerCount: 2
Fore
SplineSet
530 0 m 5
 236 0 l 5
 236 197 l 6
 236 678 183 999 45 1284 c 5
 320 1384 l 5
 472 1045 530 673 530 194 c 6
 530 0 l 5
EndSplineSet
Validated: 1
EndChar

StartChar: uni0662
Encoding: 1634 1634 61
GlifName: afii57394
Width: 1132
VWidth: 3091
GlyphClass: 2
Flags: HW
LayerCount: 2
Fore
SplineSet
1040 1358 m 1
 1046 1293 1053 1219 1053 1153 c 0
 1053 858 949 657 647 657 c 0
 612 657 551 659 507 667 c 1
 522 500 529 340 529 194 c 2
 529 0 l 1
 235 0 l 1
 235 197 l 2
 235 678 183 999 45 1284 c 1
 321 1382 l 1
 362 1283 384 1216 425 1119 c 0
 469 1015 499 972 635 972 c 4
 733 972 786 1031 786 1119 c 0
 786 1195 775 1264 764 1332 c 1
 1040 1358 l 1
EndSplineSet
Validated: 1
Position2: "Single Positioning lookup 10-1" dx=0 dy=0 dh=-100 dv=0
Position2: "Single Positioning lookup 5-1" dx=0 dy=0 dh=-100 dv=0
EndChar

StartChar: uni0663
Encoding: 1635 1635 62
GlifName: afii57395
Width: 1409
VWidth: 3091
GlyphClass: 2
Flags: HW
LayerCount: 2
Fore
SplineSet
995 657 m 0
 907 657 811 690 764 738 c 1
 716 694 637 657 567 657 c 0
 553 657 520 657 508 658 c 1
 526 496 529 349 529 194 c 2
 529 0 l 1
 235 0 l 1
 235 197 l 2
 235 678 183 999 45 1284 c 1
 321 1382 l 1
 370 1266 391 1185 443 1064 c 4
 465 1012 493 972 557 972 c 4
 632 972 642 1035 643 1138 c 2
 645 1293 l 1
 877 1306 l 1
 884 1158 l 2
 891 1002 919 972 983 972 c 4
 1055 972 1064 1061 1064 1141 c 0
 1064 1209 1050 1285 1043 1332 c 1
 1318 1358 l 1
 1326 1286 1331 1210 1331 1137 c 0
 1331 885 1247 657 995 657 c 0
EndSplineSet
Validated: 1
Position2: "Single Positioning lookup 10-1" dx=0 dy=0 dh=-100 dv=0
Position2: "Single Positioning lookup 5-1" dx=0 dy=0 dh=-100 dv=0
EndChar

StartChar: uni0664
Encoding: 1636 1636 63
GlifName: afii57396
Width: 1009
VWidth: 3091
GlyphClass: 2
Flags: HW
LayerCount: 2
Fore
SplineSet
312 693 m 1
 206 754 155 845 155 949 c 0
 155 1221 379 1340 656 1340 c 0
 712 1340 752 1337 805 1328 c 1
 792 1054 l 5
 746 1060 713 1062 663 1062 c 4
 570 1062 431 1024 431 942 c 0
 431 839 619 853 732 851 c 1
 755 591 l 1
 568 567 361 440 361 356 c 0
 361 335 452 315 561 315 c 0
 650 315 759 322 890 356 c 1
 924 42 l 1
 808 14 687 0 580 0 c 0
 304 0 83 76 83 352 c 0
 83 499 182 610 312 693 c 1
EndSplineSet
Validated: 1
EndChar

StartChar: uni0665
Encoding: 1637 1637 64
GlifName: afii57397
Width: 1144
VWidth: 3091
GlyphClass: 2
Flags: HW
LayerCount: 2
Fore
SplineSet
572 874 m 0
 435.704101562 874 365 646.248046875 365 493 c 0
 365 399.075195312 427.489257812 315 572 315 c 4
 715.943359375 315 779 399.50390625 779 493 c 0
 779 639.03363765 720.657226562 874 572 874 c 0
572 0 m 0
 251.049804688 0 85 182.3203125 85 493 c 0
 85 816.7890625 233.008789062 1167 572 1167 c 0
 907.250976562 1167 1059 815.6328125 1059 493 c 0
 1059 182.89453125 892.485351562 0 572 0 c 0
EndSplineSet
Validated: 1
EndChar

StartChar: uni0666
Encoding: 1638 1638 65
GlifName: afii57398
Width: 1063
VWidth: 3091
GlyphClass: 2
Flags: HW
LayerCount: 2
Fore
SplineSet
377 953 m 4
 285 953 210 978 76 1034 c 5
 76 1335 l 1
 207 1292 326 1263 468 1263 c 0
 600 1263 712 1287 832 1321 c 1
 911 1265 l 1
 890 1049 877 857 877 669 c 0
 877 446 895 247 940 0 c 1
 629 0 l 1
 598 242 585 389 585 571 c 0
 585 688 590 832 600 985 c 5
 490 954 450 953 377 953 c 4
EndSplineSet
Validated: 1
EndChar

StartChar: uni0667
Encoding: 1639 1639 66
GlifName: afii57399
Width: 1266
VWidth: 3091
GlyphClass: 2
Flags: HW
LayerCount: 2
Fore
SplineSet
495 0 m 1
 413 500 194 972 26 1243 c 1
 292 1387 l 1
 404 1185 538 907 633 577 c 5
 716 865 863 1187 974 1387 c 1
 1240 1243 l 1
 1072 972 854 501 771 0 c 1
 495 0 l 1
EndSplineSet
Validated: 1
Position2: "Single Positioning lookup 6-2" dx=0 dy=0 dh=-100 dv=0
Position2: "Single Positioning lookup 5-1" dx=0 dy=0 dh=-100 dv=0
EndChar

StartChar: uni0668
Encoding: 1640 1640 67
GlifName: afii57400
Width: 1266
VWidth: 3091
GlyphClass: 2
Flags: HW
LayerCount: 2
Fore
SplineSet
495 1327 m 1
 771 1327 l 1
 854 826 1072 355 1240 84 c 1
 974 -60 l 1
 863 140 716 462 633 750 c 1
 538 420 404 142 292 -60 c 1
 26 84 l 1
 194 355 413 827 495 1327 c 1
EndSplineSet
Validated: 1
Position2: "Single Positioning lookup 5-2" dx=0 dy=0 dh=-100 dv=0
EndChar

StartChar: uni0669
Encoding: 1641 1641 68
GlifName: afii57401
Width: 1037
VWidth: 2144
GlyphClass: 2
Flags: HW
LayerCount: 2
Fore
SplineSet
475 832 m 0
 500 832 565 834 603 844 c 1
 595 953 564 1075 460 1075 c 0
 369 1075 339 966 339 903 c 4
 339 852 356 832 475 832 c 0
489 533 m 0
 275 533 73 588 73 903 c 4
 73 1106 216 1371 462 1371 c 0
 797 1371 885 1057 897 687 c 0
 900.989200564 563.999649273 904 213 913 0 c 1
 621 0 l 1
 616 189 613 350 610 544 c 1
 554 536 523 533 489 533 c 0
EndSplineSet
EndChar

StartChar: uni066A
Encoding: 1642 1642 69
GlifName: afii57381
Width: 1107
VWidth: 4090
GlyphClass: 2
Flags: HW
LayerCount: 2
Fore
SplineSet
752 1370 m 1
 996 1259 l 1
 357 -24 l 1
 112 86 l 1
 752 1370 l 1
606 226 m 0
 606 333 694 423 802 423 c 0
 910 423 997 333 997 226 c 0
 997 119 909 31 802 31 c 0
 695 31 606 116 606 226 c 0
111 1121 m 0
 111 1228 199 1318 307 1318 c 0
 415 1318 503 1228 503 1121 c 0
 503 1014 414 926 307 926 c 0
 200 926 111 1011 111 1121 c 0
EndSplineSet
EndChar

StartChar: uni066B
Encoding: 1643 1643 70
GlifName: uni066B_
Width: 926
VWidth: 2989
GlyphClass: 2
Flags: HW
LayerCount: 2
Fore
SplineSet
629 789 m 1
 845 676 l 1
 249 -523 l 1
 28 -412 l 1
 629 789 l 1
EndSplineSet
Validated: 1
EndChar

StartChar: uni066C
Encoding: 1644 1644 71
GlifName: uni066C_
Width: 573
VWidth: 2075
GlyphClass: 2
Flags: HWO
LayerCount: 2
Fore
SplineSet
157 12 m 2
 157 234 l 1
 420 234 l 1
 420 34 l 2
 420 -177.857421875 288.556640625 -322.131835938 174.90234375 -415.670898438 c 1
 31.36328125 -304.248046875 l 1
 94.576171875 -215.950195312 157 -115.126953125 157 12 c 2
EndSplineSet
EndChar

StartChar: uni066D
Encoding: 1645 1645 72
GlifName: afii63167
Width: 1354
VWidth: 2987
GlyphClass: 2
Flags: HW
LayerCount: 2
Fore
SplineSet
539.665384951 970.099609375 m 1
 98.7470612441 970.099609375 l 1
 455.028819246 709.429574459 l 1
 318.092556043 290.561292053 l 1
 677.43398334 549.248203102 l 1
 1035.76747217 290.561132874 l 1
 899.837319797 709.429571462 l 1
 1255.11365807 970.099609375 l 1
 815.235005674 970.099609375 l 1
 677.450195312 1389.4902673 l 1
 539.665384951 970.099609375 l 1
EndSplineSet
EndChar

StartChar: uni066E
Encoding: 1646 1646 73
GlifName: uni066E_
Width: 1852
VWidth: 3091
GlyphClass: 2
Flags: HW
AnchorPoint: "Anchor107" 969 -240 basechar 0
AnchorPoint: "Anchor110" 970 1076 basechar 0
LayerCount: 2
Fore
SplineSet
1096 0 m 6
 885 0 l 2
 432 0 79 118 79 536 c 0
 79 662 110 784 152 884 c 1
 409 788 l 1
 386.136014223 724.37847436 353.996579162 630.121567142 353.996579162 552.385553735 c 0
 353.996579162 348.897138911 610.569530518 310 885 310 c 2
 1099 310 l 6
 1317 310 1497 336 1497 457 c 4
 1497 517 1480 660 1442 808 c 5
 1718 882 l 5
 1749 786 1772 608 1772 492 c 4
 1772 79 1470 0 1096 0 c 6
EndSplineSet
Substitution2: "'fina' Terminal Forms in Arabic lookup 1 subtable" uni066E.fina
Substitution2: "'medi' Medial Forms in Arabic lookup 2 subtable" uni066E.medi
Substitution2: "'init' Initial Forms in Arabic lookup 3 subtable" uni066E.init
EndChar

StartChar: uni066F
Encoding: 1647 1647 74
GlifName: uni066F_
Width: 1477
VWidth: 3091
GlyphClass: 2
Flags: HW
AnchorPoint: "Anchor107" 741 -661 basechar 0
AnchorPoint: "Anchor110" 969 1283 basechar 0
LayerCount: 2
Fore
SplineSet
728 -441 m 0
 297 -441 82 -171 82 195 c 0
 82 357 119 534 187 708 c 1
 446 609 l 1
 395 465 356 326 356 210 c 0
 356 22 451 -135 728 -135 c 0
 979 -135 1102 -59 1129 97 c 1
 1085 88 1029 83 975 83 c 0
 735 83 580 195 580 445 c 0
 580 644 715 911 967 911 c 0
 1283 911 1399 554 1399 221 c 0
 1399 -236 1188 -441 728 -441 c 0
965 383 m 0
 1014 383 1065 387 1112 397 c 1
 1097 483 1049 612 965 612 c 0
 890 612 844 531 844 457 c 0
 844 390 901 383 965 383 c 0
EndSplineSet
Substitution2: "'init' Initial Forms in Arabic lookup 3 subtable" uni066F.init
Substitution2: "'medi' Medial Forms in Arabic lookup 2 subtable" uni066F.medi
Substitution2: "'fina' Terminal Forms in Arabic lookup 1 subtable" uni066F.fina
EndChar

StartChar: uni0670
Encoding: 1648 1648 75
GlifName: uni0670
Width: 0
VWidth: 2608
GlyphClass: 4
Flags: HW
AnchorPoint: "Anchor110" 104 1098 mark 0
AnchorPoint: "Anchor109" 104 1098 mark 0
AnchorPoint: "Anchor101" 104 1484 basemark 0
AnchorPoint: "Anchor101" 104 1098 mark 0
LayerCount: 2
Fore
SplineSet
56 1100 m 1
 56 1483 l 1
 161 1483 l 1
 161 1100 l 1
 56 1100 l 1
EndSplineSet
Validated: 1
EndChar

StartChar: uni0674
Encoding: 1652 1652 76
GlifName: uni0674
Width: 558
VWidth: 2573
GlyphClass: 2
Flags: HW
LayerCount: 2
Fore
SplineSet
189 1257 m 1
 144 1294 122 1332 122 1402 c 0
 122 1522 220 1608 327 1608 c 0
 386 1608 418 1595 458 1572 c 1
 459 1450 l 1
 418 1471 384 1481 341 1481 c 0
 289 1481 235 1449 235 1389 c 0
 236 1354 266 1316 336 1326 c 0
 338 1326 340 1327 343 1328 c 2
 490 1381 l 1
 507 1262 l 1
 104 1103 l 1
 87 1218 l 1
 189 1257 l 1
EndSplineSet
Validated: 33
EndChar

StartChar: uni06A1
Encoding: 1697 1697 80
GlifName: uni06A_1
Width: 1836
VWidth: 3091
GlyphClass: 2
Flags: HW
AnchorPoint: "Anchor110" 1296 1522 basechar 0
AnchorPoint: "Anchor107" 935 -239 basechar 0
LayerCount: 2
Fore
SplineSet
1331 659 m 4
 1380 659 1431 663 1478 673 c 5
 1463 759 1415 888 1331 888 c 4
 1256 888 1210 807 1210 733 c 4
 1210 666 1267 659 1331 659 c 4
1484 401 m 5
 1440 394 1387 390 1339 390 c 4
 1101 390 948 492 948 720 c 4
 948 940 1101 1186 1333 1186 c 4
 1648 1186 1758 842 1758 522 c 4
 1758 102 1588 0 1218 0 c 6
 885 0 l 2
 432 0 79 118 79 536 c 0
 79 662 110 784 152 884 c 1
 409 787 l 1
 386.136014223 723.37847436 353.996579162 630.109774789 353.996579162 552.385449235 c 0
 353.996579162 348.897146848 610.569620114 310 885 310 c 2
 1240 310 l 6
 1399 310 1481 313 1484 401 c 5
EndSplineSet
Substitution2: "'init' Initial Forms in Arabic lookup 3 subtable" uni06A1.init
Substitution2: "'medi' Medial Forms in Arabic lookup 2 subtable" uni06A1.medi
Substitution2: "'fina' Terminal Forms in Arabic lookup 1 subtable" uni06A1.fina
EndChar

StartChar: uni06A9
Encoding: 1705 1705 81
GlifName: uni06A_9
Width: 1853
VWidth: 3091
GlyphClass: 2
Flags: HW
AnchorPoint: "Anchor110" 1267 1384 basechar 0
AnchorPoint: "Anchor107" 929 -240 basechar 0
LayerCount: 2
Fore
SplineSet
1138 0 m 6
 885 0 l 2
 433 0 79 118 79 536 c 0
 79 662 110 784 152 884 c 1
 409 787 l 1
 386.136014223 723.37847436 353.996579162 630.109774789 353.996579162 552.385449235 c 0
 353.996579162 348.897146848 610.569620114 310 885 310 c 2
 1137 310 l 6
 1341 310 1449 329 1449 414 c 4
 1449 485 1139 640 1000 739 c 4
 942.302734375 780.368164062 911.379882812 856.291992188 911.379882812 930.194335938 c 4
 911.379882812 1008.68652344 946.263671875 1084.89746094 1021 1115 c 6
 1803 1434 l 5
 1803 1127 l 5
 1280 915 l 5
 1554 756 1723 632 1723 410 c 4
 1723 82 1479 0 1138 0 c 6
EndSplineSet
Position2: "Single Positioning lookup 4 subtable" dx=0 dy=0 dh=-23 dv=0
Position2: "Single Positioning lookup 2 subtable" dx=0 dy=0 dh=-201 dv=0
Position2: "Single Positioning lookup 1 subtable" dx=0 dy=0 dh=-150 dv=0
Position2: "Single Positioning lookup 0 subtable" dx=0 dy=0 dh=189 dv=0
Substitution2: "'init' Initial Forms in Arabic lookup 3 subtable" uniFB90
Substitution2: "'medi' Medial Forms in Arabic lookup 2 subtable" uniFB91
Substitution2: "'fina' Terminal Forms in Arabic lookup 1 subtable" uniFB8F
EndChar

StartChar: uni06BA
Encoding: 1722 1722 83
GlifName: afii57514
Width: 1445
VWidth: 3091
GlyphClass: 2
Flags: HW
AnchorPoint: "Anchor110" 714 1016 basechar 0
AnchorPoint: "Anchor107" 723 -665 basechar 0
LayerCount: 2
Fore
SplineSet
718 -136 m 4
 998 -136 1092 8 1092 208 c 0
 1092 349 1037 505 976 652 c 1
 1261 758 l 1
 1339 552 1366 394 1366 214 c 0
 1366 -195 1135 -442 718 -442 c 4
 287 -442 82 -172 82 194 c 4
 82 356 119 533 187 707 c 5
 446 608 l 5
 395 464 356 325 356 209 c 4
 356 21 441 -136 718 -136 c 4
EndSplineSet
Substitution2: "'init' Initial Forms in Arabic lookup 3 subtable" uni06BA.init
Substitution2: "'medi' Medial Forms in Arabic lookup 2 subtable" uni06BA.medi
Substitution2: "'fina' Terminal Forms in Arabic lookup 1 subtable" uniFB9F
EndChar

StartChar: uni06F0
Encoding: 1776 1776 86
GlifName: uni06F_0
Width: 924
VWidth: 2699
GlyphClass: 2
Flags: HW
LayerCount: 2
Fore
SplineSet
107 478 m 4
 107 675 265 833 462 833 c 4
 659 833 817 675 817 478 c 4
 817 281 659 123 462 123 c 4
 265 123 107 281 107 478 c 4
338 478 m 4
 338 408 392 363 462 363 c 4
 532 363 586 408 586 478 c 4
 586 548 532 593 462 593 c 4
 392 593 338 548 338 478 c 4
EndSplineSet
Validated: 1
EndChar

StartChar: uni06F4
Encoding: 1780 1780 90
GlifName: uni06F_4
Width: 1230
VWidth: 3091
GlyphClass: 2
Flags: HW
LayerCount: 2
Fore
SplineSet
852 1087 m 4
 753 1087 700 990 700 899 c 0
 700 870 781 842 889 842 c 0
 968 842 1061 857 1148 898 c 1
 1188 612 l 1
 1068 553 950 544 876 544 c 0
 743 544 599 582 510 630 c 1
 527 469 529 302 529 184 c 2
 529 0 l 1
 235 0 l 1
 235 187 l 2
 235 668 182 999 44 1284 c 1
 324 1384 l 1
 418 1103 l 2
 436 1050 452 1000 476 972 c 5
 489 1184 627 1366 840 1366 c 0
 981 1366 1067 1318 1146 1255 c 1
 1052 1024 l 5
 981 1066 926 1087 852 1087 c 4
EndSplineSet
Position2: "Single Positioning lookup 5-1" dx=0 dy=0 dh=-100 dv=0
Substitution2: "'locl' Localized Forms in Arabic lookup 10 subtable" uni06F4.locl
EndChar

StartChar: uni06F5
Encoding: 1781 1781 91
GlifName: uni06F_5
Width: 1268
VWidth: 3091
GlyphClass: 2
Flags: HW
LayerCount: 2
Fore
SplineSet
361 396 m 0
 361 347 402 312 435 312 c 0
 521 312 523 441 536 512 c 1
 731 512 l 1
 744 436 743 312 836 312 c 0
 871 312 906 340 906 396 c 0
 906 561 772 737 632 887 c 1
 496 718 361 545 361 396 c 0
636 103 m 1
 589 46 509 0 416 0 c 0
 183 0 75 163 75 397 c 0
 75 635 260 891 420 1096 c 1
 360 1156 l 1
 536 1387 l 5
 1008 986 1193 638 1193 397 c 0
 1193 164 1088 0 856 0 c 0
 767 0 684 49 636 103 c 1
EndSplineSet
Position2: "Single Positioning lookup 6-1" dx=0 dy=0 dh=-100 dv=0
EndChar

StartChar: uni06F6
Encoding: 1782 1782 92
GlifName: uni06F_6
Width: 1057
VWidth: 3091
GlyphClass: 2
Flags: HW
LayerCount: 2
Fore
SplineSet
385 528 m 1
 222 578 84 676 84 880 c 0
 84 1154 268 1364 543 1364 c 0
 677 1364 772 1316 857 1252 c 1
 762 1003 l 5
 704 1037 629 1075 554 1075 c 4
 464 1075 357 1011 357 916 c 0
 357 836 556 775 609 772 c 0
 612 772 628 782 630 783 c 0
 728 845 819 917 930 973 c 1
 1009 686 l 1
 764 531 584 337 334 -58 c 1
 74 56 l 1
 154 200 262 361 385 528 c 1
EndSplineSet
Validated: 1
Position2: "Single Positioning lookup 5-1" dx=0 dy=0 dh=-100 dv=0
Substitution2: "'locl' Localized Forms in Arabic lookup 10 subtable" uni0666
EndChar

StartChar: uniFB8F
Encoding: 64399 64399 107
GlifName: uniF_B_8F_
Width: 1959
VWidth: 3091
GlyphClass: 2
Flags: HW
AnchorPoint: "Anchor110" 1267 1384 basechar 0
AnchorPoint: "Anchor107" 929 -240 basechar 0
LayerCount: 2
Fore
SplineSet
1138 0 m 2
 885 0 l 2
 433 0 79 118 79 536 c 0
 79 662 110 785 152 885 c 1
 409 788 l 1
 386.136014223 724.37847436 353.996579162 630.121567142 353.996579162 552.385553735 c 0
 353.996579162 348.897138911 611 310 885 310 c 2
 1137 310 l 2
 1341 310 1449 329 1449 414 c 0
 1449 485 1139 640 1000 739 c 0
 941.809570312 780.721679688 910.982421875 858.646484375 910.982421875 934.620117188 c 0
 910.982421875 1015.87109375 946.2421875 1084.88964844 1021 1115 c 2
 1803 1434 l 1
 1803 1127 l 1
 1280 915 l 1
 1554 756 1643 678 1717 499 c 0
 1774.82226562 359.133789062 1805 310 1952 310 c 2
 1980 310 l 1
 1980 0 l 1
 1952 0 l 2
 1789 0 1683 41 1608 149 c 1
 1499 33 1383 0 1138 0 c 2
EndSplineSet
EndChar

StartChar: uniFB9F
Encoding: 64415 64415 115
GlifName: uniF_B_9F_
Width: 1508
VWidth: 3091
GlyphClass: 2
Flags: HW
AnchorPoint: "Anchor107" 713 -745 basechar 0
AnchorPoint: "Anchor110" 702 894 basechar 0
LayerCount: 2
Fore
SplineSet
718 -208 m 0
 997 -208 1092 -64 1092 136 c 0
 1092 277 1037 433 976 580 c 1
 1261 686 l 1
 1343 441 l 2
 1365 374 1404 310 1488 310 c 2
 1526 310 l 1
 1526 0 l 1
 1492 0 l 2
 1442 0 1390 6 1354 29 c 1
 1304 -308 1087 -514 718 -514 c 0
 287 -514 82 -244 82 122 c 0
 82 284 119 461 187 635 c 1
 446 536 l 1
 395 392 356 253 356 137 c 0
 356 -51 441 -208 718 -208 c 0
EndSplineSet
EndChar

StartChar: uniFE73
Encoding: 65139 65139 127
GlifName: uniF_E_73
Width: 701
VWidth: 3091
GlyphClass: 2
Flags: HW
AnchorPoint: "Anchor110" 369 1116 basechar 0
AnchorPoint: "Anchor107" 447 -222 basechar 0
LayerCount: 2
Fore
SplineSet
55 505 m 6
 55 586 l 5
 366 586 l 5
 366 502 l 6
 366 346 475 304 643 304 c 6
 720 304 l 5
 720 0 l 5
 633 0 l 6
 279 0 55 152 55 505 c 6
EndSplineSet
EndChar

StartChar: uniFE8E
Encoding: 65166 65166 153
GlifName: uniF_E_8E_
Width: 576
VWidth: 3091
GlyphClass: 2
Flags: HW
AnchorPoint: "Anchor110" 276 1562 basechar 0
AnchorPoint: "Anchor107" 340 -256 basechar 0
LayerCount: 2
Fore
SplineSet
131 1417 m 1
 424 1417 l 1
 424 501 l 2
 424 368 443 310 571 310 c 6
 595 310 l 5
 595 0 l 1
 571 0 l 2
 264 0 131 159 131 472 c 2
 131 1417 l 1
EndSplineSet
Validated: 1
EndChar

StartChar: uniFEA2
Encoding: 65186 65186 173
GlifName: uniF_E_A_2
Width: 1460
VWidth: 3091
GlyphClass: 2
Flags: HW
AnchorPoint: "Anchor107" 739 -865 basechar 0
AnchorPoint: "Anchor110" 645 1291 basechar 0
LayerCount: 2
Fore
SplineSet
80 -110 m 0
 80 285 428 517 753 615 c 1
 697 636 612 664 578 675 c 0
 547 685 523 689 515 689 c 0
 432 689 368 631 324 573 c 2
 282 517 l 1
 44 636 l 1
 94 717 l 2
 190 873 334 991 516 991 c 4
 650 991 753 937 859 885 c 4
 1109 762 1180 739 1354 729 c 1
 1353 453 l 1
 1287 448 1178 436 1122 426 c 1
 1129 344 1229 310 1399 310 c 2
 1478 310 l 1
 1478 0 l 1
 1402 0 l 2
 1094 0 901 80 873 363 c 1
 596 275 350 116 350 -104 c 0
 350 -291 562 -390 792 -390 c 0
 987 -390 1164 -348 1299 -297 c 1
 1387 -587 l 1
 1200 -660 997 -691 808 -691 c 0
 419 -691 80 -528 80 -110 c 0
EndSplineSet
EndChar

StartChar: uniFEA3
Encoding: 65187 65187 174
GlifName: uniF_E_A_3
Width: 1422
VWidth: 3091
GlyphClass: 2
Flags: HW
AnchorPoint: "Anchor110" 621 1244 basechar 0
AnchorPoint: "Anchor107" 581 -251 basechar 0
LayerCount: 2
Fore
SplineSet
-18 310 m 5
 150 310 l 6
 398 310 585 384 867 529 c 5
 794 560 647 618 592 636 c 4
 556 648 529 654 519 654 c 4
 448 654 378 598 344 553 c 6
 286 480 l 5
 49 596 l 5
 99 678 l 6
 194 834 338 953 520 953 c 4
 654 953 758 898 864 846 c 4
 1112 724 1186 701 1356 691 c 5
 1356 409 l 5
 1192 387 1080 324 900 228 c 4
 643 91 444 0 147 0 c 6
 -18 0 l 5
 -18 310 l 5
EndSplineSet
Position2: "Single Positioning lookup 2 subtable" dx=0 dy=0 dh=-168 dv=0
Position2: "Single Positioning lookup 1 subtable" dx=0 dy=0 dh=-100 dv=0
EndChar

StartChar: uniFEA4
Encoding: 65188 65188 175
GlifName: uniF_E_A_4
Width: 1416
VWidth: 3091
GlyphClass: 2
Flags: HW
AnchorPoint: "Anchor110" 621 1304 basechar 0
AnchorPoint: "Anchor107" 581 -251 basechar 0
LayerCount: 2
Fore
SplineSet
1435 310 m 1
 1435 0 l 1
 1377 0 l 2
 1138 0 979 65 919 240 c 1
 676 111 424 0 147 0 c 2
 -18 0 l 1
 -18 310 l 1
 150 310 l 2
 398 310 585 384 867 529 c 1
 794 560 647 618 592 636 c 0
 556 648 529 654 519 654 c 0
 448 654 378 598 344 553 c 2
 286 480 l 1
 49 596 l 1
 99 678 l 2
 194 834 338 953 520 953 c 0
 654 953 758 898 864 846 c 0
 1112 724 1186 701 1356 691 c 1
 1356 408 l 1
 1276 400 1215 385 1129 351 c 5
 1158 318 1278 310 1381 310 c 2
 1435 310 l 1
EndSplineSet
EndChar

StartChar: uniFEAA
Encoding: 65194 65194 181
GlifName: uniF_E_A_A_
Width: 1120
VWidth: 3091
GlyphClass: 2
Flags: HW
AnchorPoint: "Anchor107" 475 -255 basechar 0
AnchorPoint: "Anchor110" 577 1278 basechar 0
LayerCount: 2
Fore
SplineSet
648 445 m 4
 648 478 629 543 614 576 c 2
 413 1020 l 1
 666 1144 l 1
 919 562 l 2
 972 440 999 310 1098 310 c 2
 1139 310 l 1
 1139 0 l 1
 1098 0 l 2
 949 0 862 64 794 148 c 1
 691 55 558 1 362 1 c 0
 241 1 168 7 79 29 c 1
 79 339 l 1
 162 319 266 307 347 307 c 0
 476 307 648 333 648 445 c 4
EndSplineSet
Validated: 1
EndChar

StartChar: uniFEAE
Encoding: 65198 65198 185
GlifName: uniF_E_A_E_
Width: 812
VWidth: 2242
GlyphClass: 2
Flags: HW
AnchorPoint: "Anchor107" 363 -654 basechar 0
AnchorPoint: "Anchor110" 468 948 basechar 0
LayerCount: 2
Fore
SplineSet
804 0 m 2
 752 0 698 10 661 30 c 1
 604 -285 387 -482 45 -547 c 1
 -62 -269 l 1
 220 -208 400 -106 400 172 c 0
 400 295 350 466 306 597 c 1
 594 691 l 1
 653 461 l 2
 674 380 708 310 793 310 c 2
 831 310 l 1
 831 0 l 1
 804 0 l 2
EndSplineSet
EndChar

StartChar: uniFEB2
Encoding: 65202 65202 189
GlifName: uniF_E_B_2
Width: 2583
VWidth: 2144
GlyphClass: 2
Flags: HW
AnchorPoint: "Anchor107" 723 -754 basechar 0
AnchorPoint: "Anchor110" 1764 1094 basechar 0
LayerCount: 2
Fore
SplineSet
718 -208 m 0
 997 -208 1092 -64 1092 136 c 0
 1092 277 1037 433 976 580 c 1
 1261 686 l 1
 1330 476 l 2
 1359 388 1399 311 1504 310 c 0
 1609 310 1660 364 1660 476 c 0
 1660 503 1652 624 1646 695 c 1
 1914 728 l 1
 1935 451 l 2
 1940 373 1970 310 2049 310 c 0
 2125 310 2152 365 2152 454 c 0
 2152 502 2144 637 2138 719 c 1
 2406 752 l 1
 2427 451 l 2
 2433 358 2474 310 2573 310 c 2
 2602 310 l 1
 2602 0 l 1
 2575 0 l 2
 2455 0 2360 45 2301 112 c 1
 2247 50 2166 0 2056 0 c 0
 1938 0 1851 56 1794 123 c 1
 1727 58 1631 0 1512 0 c 0
 1457 0 1399 17 1358 46 c 1
 1314 -300 1093 -514 718 -514 c 0
 287 -514 82 -244 82 122 c 4
 82 284 119 461 187 635 c 1
 446 536 l 1
 395 392 356 253 356 137 c 4
 356 -51 441 -208 718 -208 c 0
EndSplineSet
EndChar

StartChar: uniFEB3
Encoding: 65203 65203 190
GlifName: uniF_E_B_3
Width: 1655
VWidth: 2144
GlyphClass: 2
Flags: HW
AnchorPoint: "Anchor107" 777 -250 basechar 0
AnchorPoint: "Anchor110" 916 1052 basechar 0
LayerCount: 2
Fore
SplineSet
667 0 m 0
 535 0 444 49 384 121 c 1
 308 47 202 0 52 0 c 2
 -18 0 l 1
 -18 310 l 1
 54 310 l 2
 195 310 259 344 259 476 c 0
 259 506 251 624 245 695 c 1
 512 728 l 1
 534 451 l 2
 540 367 582 310 669 310 c 0
 774 310 815 364 815 476 c 0
 815 503 807 624 801 695 c 1
 1068 728 l 1
 1090 451 l 2
 1095 374 1127 310 1206 310 c 0
 1283 310 1305 381 1305 461 c 0
 1305 558 1271 702 1247 801 c 1
 1524 873 l 1
 1556 748 1576 619 1576 491 c 0
 1576 226 1485 1 1210 0 c 0
 1090 0 1006 56 949 123 c 1
 882 58 786 0 667 0 c 0
EndSplineSet
Validated: 1
Position2: "Single Positioning lookup 2 subtable" dx=0 dy=0 dh=-168 dv=0
Position2: "Single Positioning lookup 1 subtable" dx=0 dy=0 dh=-84 dv=0
EndChar

StartChar: uniFEB4
Encoding: 65204 65204 191
GlifName: uniF_E_B_4
Width: 1739
VWidth: 2144
GlyphClass: 2
Flags: HW
AnchorPoint: "Anchor107" 777 -250 basechar 0
AnchorPoint: "Anchor110" 916 1052 basechar 0
LayerCount: 2
Fore
SplineSet
1210 0 m 0
 1092 0 1006 56 949 123 c 1
 882 58 786 0 667 0 c 0
 535 0 444 49 384 121 c 1
 308 47 202 0 52 0 c 2
 -18 0 l 1
 -18 310 l 1
 54 310 l 2
 195 310 259 344 259 476 c 4
 259 506 251 624 245 695 c 1
 512 728 l 1
 534 451 l 6
 540 367 582 310 669 310 c 0
 774 310 815 364 815 476 c 4
 815 503 807 624 801 695 c 1
 1068 728 l 1
 1090 451 l 6
 1095 373 1129 310 1208 310 c 0
 1286 310 1307 383 1307 474 c 4
 1307 522 1299 637 1293 719 c 1
 1560 752 l 1
 1582 451 l 6
 1588 358 1630 310 1729 310 c 2
 1757 310 l 1
 1757 0 l 1
 1731 0 l 2
 1611 0 1515 45 1456 112 c 1
 1402 50 1321 0 1210 0 c 0
EndSplineSet
Validated: 1
EndChar

StartChar: uniFEBA
Encoding: 65210 65210 197
GlifName: uniF_E_B_A_
Width: 2633
VWidth: 3091
GlyphClass: 2
Flags: HW
AnchorPoint: "Anchor107" 723 -744 basechar 0
AnchorPoint: "Anchor110" 2060 1241 basechar 0
LayerCount: 2
Fore
SplineSet
718 -208 m 4
 997 -208 1092 -64 1092 136 c 0
 1092 277 1037 433 976 580 c 1
 1261 686 l 1
 1329 478 l 2
 1349 416 1371 354 1400 350 c 1
 1569 629 1791 926 2096 926 c 0
 2354 926 2537 749 2537 502 c 0
 2537 448 2528 359 2503 314 c 1
 2533 312 2572 310 2623 310 c 2
 2652 310 l 1
 2652 0 l 1
 2624 0 l 2
 2467 0 2366 50 2279 108 c 1
 2134 45 1942 0 1748 0 c 2
 1696 0 l 2
 1562 0 1451 19 1358 46 c 1
 1314 -300 1093 -514 718 -514 c 4
 287 -514 82 -244 82 122 c 4
 82 284 119 461 187 635 c 1
 446 536 l 1
 395 392 356 253 356 137 c 4
 356 -51 441 -208 718 -208 c 4
2103 623 m 0
 1948 623 1788 453 1687 310 c 1
 1764 310 l 2
 2013 310 2259 329 2259 481 c 0
 2259 568 2191 623 2103 623 c 0
EndSplineSet
EndChar

StartChar: uniFEBB
Encoding: 65211 65211 198
GlifName: uniF_E_B_B_
Width: 1744
VWidth: 3091
GlyphClass: 2
Flags: HW
AnchorPoint: "Anchor110" 1168 1241 basechar 0
AnchorPoint: "Anchor107" 712 -256 basechar 0
LayerCount: 2
Fore
SplineSet
1231 623 m 4
 1076 623 916 453 815 310 c 5
 892 310 l 6
 1141 310 1387 329 1387 481 c 4
 1387 568 1319 623 1231 623 c 4
528 350 m 1
 697 629 919 926 1224 926 c 0
 1482 926 1665 749 1665 502 c 0
 1665 111 1301 0 877 0 c 2
 824 0 l 2
 614 0 450 31 344 126 c 1
 269 49 170 0 21 0 c 2
 -19 0 l 1
 -18 310 l 1
 21 310 l 2
 175 310 211 363 211 495 c 0
 211 573 206 652 200 724 c 1
 466 757 l 1
 486 463 l 2
 490 415 504 359 528 350 c 1
EndSplineSet
Validated: 1
Position2: "Single Positioning lookup 2 subtable" dx=0 dy=0 dh=-168 dv=0
Position2: "Single Positioning lookup 1 subtable" dx=0 dy=0 dh=-157 dv=0
EndChar

StartChar: uniFEBC
Encoding: 65212 65212 199
GlifName: uniF_E_B_C_
Width: 1761
VWidth: 3091
GlyphClass: 2
Flags: HW
AnchorPoint: "Anchor110" 1168 1241 basechar 0
AnchorPoint: "Anchor107" 712 -256 basechar 0
LayerCount: 2
Fore
SplineSet
1231 623 m 4
 1076 623 916 453 815 310 c 5
 892 310 l 6
 1141 310 1387 329 1387 481 c 4
 1387 568 1319 623 1231 623 c 4
877 0 m 2
 824 0 l 2
 614 0 450 31 344 126 c 1
 269 49 170 0 21 0 c 2
 -19 0 l 1
 -18 310 l 1
 21 310 l 2
 175 310 211 363 211 495 c 0
 211 573 206 652 200 724 c 1
 466 757 l 1
 486 463 l 2
 490 415 504 359 528 350 c 1
 698 629 918 926 1224 926 c 0
 1482 926 1665 749 1665 502 c 0
 1665 448 1656 359 1631 314 c 1
 1661 312 1700 310 1751 310 c 2
 1780 310 l 1
 1780 0 l 1
 1752 0 l 2
 1595 0 1495 50 1408 108 c 1
 1263 45 1071 0 877 0 c 2
EndSplineSet
Validated: 1
EndChar

StartChar: uniFEC2
Encoding: 65218 65218 205
GlifName: uniF_E_C_2
Width: 1594
VWidth: 3091
GlyphClass: 2
Flags: HW
AnchorPoint: "Anchor110" 517 1557 basechar 0
AnchorPoint: "Anchor107" 692 -252 basechar 0
LayerCount: 2
Fore
SplineSet
1064 623 m 4
 909 623 749 453 648 310 c 5
 725 310 l 6
 974 310 1220 329 1220 481 c 4
 1220 568 1152 623 1064 623 c 4
1057 926 m 0
 1315 926 1498 749 1498 502 c 0
 1498 448 1489 359 1464 314 c 1
 1494 312 1533 310 1584 310 c 2
 1613 310 l 1
 1613 0 l 1
 1585 0 l 2
 1428 0 1317 50 1230 108 c 1
 1085 45 903 0 709 0 c 2
 69 0 l 1
 69 310 l 1
 328 310 l 1
 345 337 360 358 379 384 c 1
 379 1417 l 1
 672 1417 l 1
 672 745 l 1
 791 853 906 925 1057 926 c 0
EndSplineSet
Validated: 1
EndChar

StartChar: uniFEC3
Encoding: 65219 65219 206
GlifName: uniF_E_C_3
Width: 1365
VWidth: 3091
GlyphClass: 2
Flags: HW
AnchorPoint: "Anchor107" 506 -252 basechar 0
AnchorPoint: "Anchor110" 306 1556 basechar 0
LayerCount: 2
Fore
SplineSet
852 623 m 4
 697 623 537 453 436 310 c 5
 513 310 l 6
 762 310 1008 329 1008 481 c 4
 1008 568 940 623 852 623 c 4
117 310 m 1
 134 337 148 358 167 384 c 1
 167 1417 l 1
 460 1417 l 1
 460 745 l 1
 579 853 695 925 845 926 c 0
 1103 926 1286 749 1286 502 c 0
 1286 111 922 0 498 0 c 2
 -18 0 l 1
 -18 310 l 1
 117 310 l 1
EndSplineSet
Validated: 1
Position2: "Single Positioning lookup 2 subtable" dx=0 dy=0 dh=-168 dv=0
Position2: "Single Positioning lookup 1 subtable" dx=0 dy=0 dh=-157 dv=0
EndChar

StartChar: uniFEC4
Encoding: 65220 65220 207
GlifName: uniF_E_C_4
Width: 1382
VWidth: 3091
GlyphClass: 2
Flags: HW
AnchorPoint: "Anchor110" 303 1557 basechar 0
AnchorPoint: "Anchor107" 506 -252 basechar 0
LayerCount: 2
Fore
SplineSet
852 623 m 4
 697 623 537 453 436 310 c 5
 513 310 l 6
 762 310 1008 329 1008 481 c 4
 1008 568 940 623 852 623 c 4
845 926 m 0
 1103 926 1286 749 1286 502 c 0
 1286 448 1277 359 1252 314 c 1
 1282 312 1321 310 1372 310 c 2
 1401 310 l 1
 1401 0 l 1
 1373 0 l 2
 1216 0 1106 50 1019 108 c 1
 874 45 692 0 498 0 c 2
 -18 0 l 1
 -18 310 l 1
 117 310 l 1
 134 337 148 358 167 384 c 1
 167 1417 l 1
 460 1417 l 1
 460 745 l 1
 579 853 694 925 845 926 c 0
EndSplineSet
Validated: 1
EndChar

StartChar: uniFECA
Encoding: 65226 65226 213
GlifName: uniF_E_C_A_
Width: 1261
VWidth: 3091
GlyphClass: 2
Flags: HW
AnchorPoint: "Anchor107" 645 -875 basechar 0
AnchorPoint: "Anchor110" 657 1271 basechar 0
LayerCount: 2
Fore
SplineSet
660 679 m 0
 593 679 531 673 457 660 c 1
 531 584 659 465 659 465 c 1
 659 465 789 584 863 660 c 1
 789 673 727 679 660 679 c 0
419 327 m 5
 317 442 140 651 140 739 c 0
 140 901 447 958 659 958 c 0
 871 958 1179 901 1179 739 c 0
 1179 648 1021 466 903 333 c 1
 999 313 1118 310 1211 310 c 2
 1280 310 l 1
 1280 0 l 1
 1221 0 l 2
 1025 0 880 18 656 152 c 1
 499 62 350 -41 350 -150 c 0
 350 -303 505 -382 690 -382 c 0
 834 -382 991 -352 1091 -320 c 1
 1165 -624 l 1
 1005 -666 849 -690 708 -690 c 0
 359 -690 79 -543 79 -150 c 0
 79 108 270 218 419 327 c 5
EndSplineSet
Validated: 1
EndChar

StartChar: uniFECB
Encoding: 65227 65227 214
GlifName: uniF_E_C_B_
Width: 1098
VWidth: 3091
GlyphClass: 2
Flags: HW
AnchorPoint: "Anchor110" 577 1293 basechar 0
AnchorPoint: "Anchor107" 509 -251 basechar 0
LayerCount: 2
Fore
SplineSet
180 310 m 1
 147 374 129 475 129 544 c 0
 129 786 327 996 578 996 c 0
 737 996 853 934 985 844 c 1
 874 590 l 5
 789 640 709 685 599 685 c 0
 511 685 403 629 403 536 c 0
 403 463 462 385 509 354 c 0
 511.50390625 352.348632812 517 355 521 356 c 2
 1020 475 l 1
 1020 165 l 1
 683 62 373 0 79 0 c 2
 -18 0 l 1
 -18 310 l 1
 180 310 l 1
EndSplineSet
Validated: 1
Position2: "Single Positioning lookup 2 subtable" dx=0 dy=0 dh=-168 dv=0
Position2: "Single Positioning lookup 1 subtable" dx=0 dy=0 dh=-84 dv=0
EndChar

StartChar: uniFECC
Encoding: 65228 65228 215
GlifName: uniF_E_C_C_
Width: 1172
VWidth: 3091
GlyphClass: 2
Flags: HW
AnchorPoint: "Anchor107" 593 -251 basechar 0
AnchorPoint: "Anchor110" 617 1203 basechar 0
LayerCount: 2
Fore
SplineSet
623 621 m 4
 556 621 494 615 420 602 c 5
 494 526 622 407 622 407 c 5
 622 407 752 526 826 602 c 5
 752 615 690 621 623 621 c 4
622 900 m 4
 834 900 1142 843 1142 681 c 4
 1142 590 989 411 905 326 c 5
 952 312 997 310 1036 310 c 2
 1191 310 l 1
 1191 0 l 1
 1037 0 l 2
 878 0 741 40 622 100 c 1
 495 38 300 0 138 0 c 2
 -18 0 l 1
 -18 310 l 1
 139 310 l 2
 180 310 282 310 339 327 c 5
 257 412 103 593 103 681 c 4
 103 843 410 900 622 900 c 4
EndSplineSet
Validated: 1
EndChar

StartChar: uniFEDA
Encoding: 65242 65242 229
GlifName: uniF_E_D_A_
Width: 1893
VWidth: 3094
GlyphClass: 2
Flags: HW
AnchorPoint: "Anchor110" 948 1322 basechar 0
AnchorPoint: "Anchor107" 932 -237 basechar 0
LayerCount: 2
Fore
SplineSet
885 310 m 2
 1033 310 l 2
 1390 310 1451 344 1451 523 c 2
 1451 1417 l 1
 1744 1417 l 1
 1744 526 l 2
 1744 381 1748 310 1876 310 c 2
 1912 310 l 1
 1912 0 l 1
 1878 0 l 2
 1714 0 1639 34 1579 135 c 5
 1433 12 1248 0 1040 0 c 2
 885 0 l 2
 438 0 79 115 79 536 c 0
 79 662 110 784 152 884 c 1
 409 787 l 1
 386 723 354 629 354 551 c 0
 354 350 608 310 885 310 c 2
EndSplineSet
Refer: 420 -1 N 1.035 0 0 1.035 -13 91 2
EndChar

StartChar: uniFEDB
Encoding: 65243 65243 230
GlifName: uniF_E_D_B_
Width: 939
VWidth: 3151
GlyphClass: 2
Flags: HW
AnchorPoint: "Anchor110" 343 1384 basechar 0
AnchorPoint: "Anchor107" 326 -248 basechar 0
LayerCount: 2
Fore
SplineSet
366 915 m 1
 640 756 809 632 809 410 c 0
 809 82 565 0 224 0 c 2
 -18 0 l 1
 -18 310 l 1
 223 310 l 2
 427 310 535 329 535 414 c 0
 535 485 225 640 86 739 c 0
 28.302734375 780.368164062 -2.6201171875 856.291992188 -2.6201171875 930.194335938 c 0
 -2.6201171875 1008.68652344 32.263671875 1084.89746094 107 1115 c 2
 889 1434 l 1
 889 1127 l 1
 366 915 l 1
EndSplineSet
Position2: "Single Positioning lookup 4 subtable" dx=0 dy=0 dh=-23 dv=0
Position2: "Single Positioning lookup 2 subtable" dx=0 dy=0 dh=-201 dv=0
Position2: "Single Positioning lookup 1 subtable" dx=0 dy=0 dh=-150 dv=0
Position2: "Single Positioning lookup 0 subtable" dx=0 dy=0 dh=189 dv=0
EndChar

StartChar: uniFEDC
Encoding: 65244 65244 231
GlifName: uniF_E_D_C_
Width: 1046
VWidth: 3091
GlyphClass: 2
Flags: HW
AnchorPoint: "Anchor110" 343 1384 basechar 0
AnchorPoint: "Anchor107" 326 -248 basechar 0
LayerCount: 2
Fore
SplineSet
366 915 m 5
 640 756 729 678 803 499 c 4
 860.821891746 359.133532128 891 310 1038 310 c 6
 1066 310 l 5
 1066 0 l 5
 1038 0 l 6
 875 0 769 41 694 149 c 5
 585 33 469 0 224 0 c 6
 -18 0 l 1
 -18 310 l 1
 223 310 l 6
 427 310 535 329 535 414 c 4
 535 485 225 640 86 739 c 4
 27.8098373508 780.721248692 -3.01769334236 858.646622887 -3.01769334236 934.619689345 c 4
 -3.01769334236 1015.87092928 32.2421875 1084.88964844 107 1115 c 6
 889 1434 l 5
 889 1127 l 5
 366 915 l 5
EndSplineSet
EndChar

StartChar: uniFEDE
Encoding: 65246 65246 233
GlifName: uniF_E_D_E_
Width: 1403
VWidth: 3091
GlyphClass: 2
Flags: HW
AnchorPoint: "Anchor107" 679 -716 basechar 0
AnchorPoint: "Anchor110" 591 1113 basechar 0
LayerCount: 2
Fore
SplineSet
680 -496 m 0
 285 -496 79 -277 79 113 c 4
 79 270 119 448 183 603 c 1
 442 504 l 1
 396 385 351 231 351 113 c 4
 351 -84 460 -190 680 -190 c 0
 906 -190 957 -50 957 158 c 2
 957 1417 l 1
 1250 1417 l 1
 1250 530 l 2
 1250 403 1272 310 1392 310 c 2
 1422 310 l 1
 1422 0 l 1
 1394 0 l 2
 1328 0 1282 16 1240 43 c 1
 1211 -286 1053 -496 680 -496 c 0
EndSplineSet
EndChar

StartChar: uniFEDF
Encoding: 65247 65247 234
GlifName: uniF_E_D_F_
Width: 630
VWidth: 3091
GlyphClass: 2
Flags: HW
AnchorPoint: "Anchor107" 231 -245 basechar 0
AnchorPoint: "Anchor110" 343 1562 basechar 0
LayerCount: 2
Fore
SplineSet
-18 310 m 5
 54 310 l 6
 190 310 206 366 206 500 c 6
 206 1417 l 1
 499 1417 l 1
 499 471 l 6
 499 160 368 0 53 0 c 2
 -18 0 l 1
 -18 310 l 5
EndSplineSet
Validated: 1
Position2: "Single Positioning lookup 2 subtable" dx=0 dy=0 dh=-147 dv=0
Position2: "Single Positioning lookup 1 subtable" dx=0 dy=0 dh=-84 dv=0
Position2: "Single Positioning lookup 0 subtable" dx=0 dy=0 dh=137 dv=0
EndChar

StartChar: uniFEE0
Encoding: 65248 65248 235
GlifName: uniF_E_E_0
Width: 651
VWidth: 3091
GlyphClass: 2
Flags: HW
AnchorPoint: "Anchor107" 231 -245 basechar 0
AnchorPoint: "Anchor110" 342 1562 basechar 0
LayerCount: 2
Fore
SplineSet
206 486 m 2
 206 1417 l 1
 499 1417 l 1
 499 486 l 2
 499 365 523 310 639 310 c 2
 669 310 l 1
 669 0 l 1
 641 0 l 2
 501 0 421 42 351 124 c 5
 279 47 188 0 36 0 c 2
 -18 0 l 1
 -18 310 l 1
 28 310 l 2
 156 310 206 358 206 486 c 2
EndSplineSet
EndChar

StartChar: uniFEE2
Encoding: 65250 65250 237
GlifName: uniF_E_E_2
Width: 1328
VWidth: 2744
GlyphClass: 2
Flags: HW
AnchorPoint: "Anchor110" 772 1085 basechar 0
AnchorPoint: "Anchor107" 237 -780 basechar 0
LayerCount: 2
Fore
SplineSet
929 399 m 0
 929 469 872 540 784 540 c 0
 703 540 646 439 620 365 c 1
 699 329 790 288 849 288 c 0
 910 288 929 344 929 399 c 0
1190 497 m 4
 1204 421 1247 310 1321 310 c 2
 1347 310 l 1
 1347 0 l 1
 1320 0 l 2
 1234 0 1143 49 1094 99 c 1
 1034 22 962 -16 844 -16 c 0
 702 -16 496 109 421 109 c 0
 371 109 358 -49 358 -220 c 0
 358 -398 372 -591 377 -637 c 1
 83 -637 l 1
 75 -489 68 -348 68 -218 c 0
 68 143 104 366 353 410 c 1
 419 625 568 837 780 837 c 0
 1000 837 1153 711 1190 497 c 4
EndSplineSet
EndChar

StartChar: uniFEE3
Encoding: 65251 65251 238
GlifName: uniF_E_E_3
Width: 1122
VWidth: 3091
GlyphClass: 2
Flags: HW
AnchorPoint: "Anchor107" 540 -251 basechar 0
AnchorPoint: "Anchor110" 612 1128 basechar 0
LayerCount: 2
Fore
SplineSet
636 544 m 0
 556 544 502 449 472 388 c 1
 509.241347509 354.28678015 542.948167242 330.716118265 572.999973545 314.516844301 c 0
 619.608164523 289.392935042 657.424666662 282 686 282 c 0
 751 282 775 343 775 403 c 0
 775 477 723 544 636 544 c 0
684 -23 m 0
 544 -23 425 46 311 128 c 1
 240 60 177 0 24 0 c 2
 -18 0 l 1
 -18 310 l 1
 19 310 l 2
 201.324228677 310 265.155864996 838 626 838 c 0
 884 838 1044 633 1044 403 c 0
 1044 163 927 -23 684 -23 c 0
EndSplineSet
Substitution2: "Single Substitution 3-1" uniFEE3.long
Position2: "Single Positioning lookup 2 subtable" dx=0 dy=0 dh=-168 dv=0
Position2: "Single Positioning lookup 1 subtable" dx=0 dy=0 dh=-157 dv=0
EndChar

StartChar: uniFEE4
Encoding: 65252 65252 239
GlifName: uniF_E_E_4
Width: 1174
VWidth: 3091
GlyphClass: 2
Flags: HW
AnchorPoint: "Anchor110" 611 1128 basechar 0
AnchorPoint: "Anchor107" 560 -251 basechar 0
LayerCount: 2
Fore
SplineSet
24 0 m 2
 -18 0 l 1
 -17 310 l 1
 19 310 l 2
 201 310 265.15625 838 626 838 c 0
 855 838 1004.23668492 679.558373655 1037 480 c 0
 1059 346 1114 310 1168 310 c 2
 1194 310 l 1
 1194 0 l 1
 1167 0 l 2
 1081 0 990 47 941 97 c 1
 871 12 794 -23 684 -23 c 0
 544 -23 425 46 311 128 c 1
 240 60 177 0 24 0 c 2
636 544 m 0
 556 544 502 449 472 388 c 1
 512.160762165 351.643941619 548.211120251 327.082955811 579.999974067 310.841738141 c 4
 623.407430025 288.66446982 658.86900865 282 686 282 c 0
 751 282 775 343 775 403 c 0
 775 477 723 544 636 544 c 0
EndSplineSet
Substitution2: "Single Substitution 3-1" uniFEE4.long
EndChar

StartChar: uniFEEA
Encoding: 65258 65258 245
GlifName: uniF_E_E_A_
Width: 1102
VWidth: 3091
GlyphClass: 2
Flags: HW
AnchorPoint: "Anchor110" 719 1340 basechar 0
AnchorPoint: "Anchor107" 517 -250 basechar 0
LayerCount: 2
Fore
SplineSet
1088 0 m 2
 902 0 779 70 722 233 c 1
 643 174 565 149 476 149 c 0
 248 149 79 274 79 520 c 0
 79 789 354 932 593 1003 c 1
 586 1051 l 1
 844 1104 l 1
 941 456 l 2
 950 392 1000 310 1092 310 c 2
 1121 310 l 1
 1121 0 l 1
 1088 0 l 2
665 554 m 0
 665 572 660.641601562 596.936523438 656 623 c 2
 640 716 l 1
 521 677 358 608 358 527 c 0
 358 478 404 443 470 443 c 0
 557 443 665 477 665 554 c 0
EndSplineSet
Validated: 1
EndChar

StartChar: uniFEEB
Encoding: 65259 65259 246
GlifName: uniF_E_E_B_
Width: 1454
VWidth: 3091
GlyphClass: 2
Flags: HW
AnchorPoint: "Anchor110" 639 1380 basechar 0
AnchorPoint: "Anchor107" 536 -254 basechar 0
LayerCount: 2
Fore
SplineSet
376 538 m 0
 376 465 459 398 527 378 c 1
 568 383 671 444 671 515 c 0
 671 588 609 666 529 666 c 0
 449 666 376 605 376 538 c 0
459 840 m 1
 589 1098 l 1
 1090 863 1375 744 1375 438 c 0
 1375 160 1195 10 922 10 c 0
 782 10 615 55 510 88 c 1
 389 46 226 0 79 0 c 2
 -18 0 l 1
 -18 310 l 1
 66 310 l 2
 101.534513283 310 135.149738352 310.307486918 169 312 c 1
 138 361 112 464 112 536 c 0
 112 704 239 904 513 904 c 0
 697 904 903 763 903 558 c 0
 903 458 870 372 825 308 c 1
 887 296 952 292 972 292 c 0
 1035 292 1112 320 1112 429 c 0
 1112 477 1100 552 459 840 c 1
EndSplineSet
Position2: "Single Positioning lookup 2 subtable" dx=0 dy=0 dh=-168 dv=0
Position2: "Single Positioning lookup 1 subtable" dx=0 dy=0 dh=-157 dv=0
EndChar

StartChar: uniFEEC
Encoding: 65260 65260 247
GlifName: uniF_E_E_C_
Width: 1020
VWidth: 3091
GlyphClass: 2
Flags: HW
AnchorPoint: "Anchor107" 596 -708 basechar 0
AnchorPoint: "Anchor110" 549 1179 basechar 0
LayerCount: 2
Fore
SplineSet
-18 0 m 1
 -18 310 l 1
 139 310 l 1
 139 333 l 2
 139 584 241 948 545 948 c 0
 742 948 859 791 859 592 c 0
 859 345 657 92 437 6 c 1
 454 -42 499 -104 541 -145 c 5
 609 63 827 310 1007 310 c 2
 1039 310 l 1
 1039 0 l 1
 1005 0 l 2
 832 0 788 -89 788 -257 c 0
 788 -292 790 -329 793 -367 c 1
 608 -538 l 1
 418 -448 212 -216 160 0 c 1
 -18 0 l 1
532 650 m 0
 436 650 404 438 404 333 c 2
 404 310 l 1
 517 322 615 437 615 566 c 0
 615 616 583 650 532 650 c 0
EndSplineSet
Validated: 1
Substitution2: "Single Substitution 3-1" uniFEEC.long
EndChar

StartChar: uniFEEE
Encoding: 65262 65262 249
GlifName: uniF_E_E_E_
Width: 932
VWidth: 2245
GlyphClass: 2
Flags: HW
AnchorPoint: "Anchor107" 461 -644 basechar 0
AnchorPoint: "Anchor110" 475 1138 basechar 0
LayerCount: 2
Fore
SplineSet
467 866 m 4
 738 866 862 580 886 310 c 1
 951 310 l 1
 951 0 l 1
 866 0 l 1
 783 -318 552 -473 175 -547 c 1
 68 -259 l 1
 310 -212 530 -120 581 0 c 1
 500 0 l 2
 228 0 79 107 79 368 c 0
 79 565 199 866 467 866 c 4
500 310 m 2
 619 310 l 1
 607 394 572 561 465 561 c 0
 378 561 348 443 348 380 c 0
 348 313 414 310 500 310 c 2
EndSplineSet
EndChar

StartChar: uniFEF0
Encoding: 65264 65264 251
GlifName: uniF_E_F_0
Width: 1359
VWidth: 2831
GlyphClass: 2
Flags: HW
AnchorPoint: "Anchor107" 703 -744 basechar 0
AnchorPoint: "Anchor110" 679 743 basechar 0
LayerCount: 2
Fore
SplineSet
718 -514 m 4
 287 -514 82 -244 82 122 c 4
 82 274 110 426 178 600 c 1
 437 501 l 1
 386 357 356 243 356 137 c 4
 356 -51 441 -208 718 -208 c 4
 1039 -208 1148 -84 1148 -45 c 0
 1148 -2 1106 0 1014 0 c 2
 855 0 l 2
 794 0 789.580479914 30.9921811809 776 80 c 2
 730 246 l 2
 717.448908061 291.293070909 717 310 767 310 c 2
 1378 310 l 1
 1378 0 l 1
 1397 0 l 1
 1402 -24 1403 -29 1403 -45 c 0
 1403 -303 1145 -514 718 -514 c 4
EndSplineSet
EndChar

StartChar: uniFEFB
Encoding: 65275 65275 262
GlifName: uniF_E_F_B_
Width: 1234
VWidth: 3091
GlyphClass: 3
Flags: HW
AnchorPoint: "Anchor106" 348 -259 baselig 1
AnchorPoint: "Anchor106" 921 -255 baselig 0
AnchorPoint: "Anchor109" 234 1493 baselig 1
AnchorPoint: "Anchor109" 959 1561 baselig 0
LayerCount: 2
Fore
SplineSet
309 0 m 0
 234 0 162 7 88 13 c 1
 88 312 l 1
 170 304 267 299 329 299 c 0
 347 299 363 299 379 299 c 1
 379 299 254 904 85 1281 c 1
 350 1404 l 1
 520 1004 658 355 658 355 c 1
 770 407 812 536 812 724 c 2
 812 1417 l 1
 1103 1417 l 1
 1103 711 l 2
 1103 103 672 0 309 0 c 0
EndSplineSet
Validated: 1
Position2: "Single Positioning lookup 2 subtable" dx=0 dy=0 dh=-147 dv=0
Position2: "Single Positioning lookup 1 subtable" dx=0 dy=0 dh=-84 dv=0
Position2: "Single Positioning lookup 0 subtable" dx=0 dy=0 dh=137 dv=0
LCarets2: 1 0
Ligature2: "'rlig' Required Ligatures in Arabic lookup 5 subtable" uniFEDF uniFE8E
EndChar

StartChar: uniFEFC
Encoding: 65276 65276 263
GlifName: uniF_E_F_C_
Width: 1264
VWidth: 3091
GlyphClass: 3
Flags: HW
AnchorPoint: "Anchor106" 348 -259 baselig 1
AnchorPoint: "Anchor106" 911 -255 baselig 0
AnchorPoint: "Anchor109" 234 1493 baselig 1
AnchorPoint: "Anchor109" 959 1561 baselig 0
LayerCount: 2
Fore
SplineSet
658 355 m 5
 771 406 812 536 812 724 c 2
 812 1417 l 1
 1103 1417 l 1
 1103 671 l 2
 1103 507 1109 310 1248 310 c 6
 1283 310 l 5
 1283 0 l 1
 1245 0 l 2
 1083 0 973 84 914 199 c 1
 778 70 562 0 309 0 c 0
 234 0 162 7 88 13 c 1
 88 312 l 5
 170 306 267 299 329 299 c 4
 347 299 362 299 379 299 c 5
 379 299 254 904 85 1281 c 1
 350 1404 l 1
 520 1004 658 355 658 355 c 5
EndSplineSet
Validated: 1
LCarets2: 1 0
Ligature2: "'rlig' Required Ligatures in Arabic lookup 5 subtable" uniFEE0 uniFE8E
EndChar

StartChar: arabic_dot
Encoding: 65536 -1 264
GlifName: arabic_dot
Width: 197
VWidth: 2812
GlyphClass: 2
Flags: HW
LayerCount: 2
Fore
SplineSet
96 289 m 1
 283 102 l 1
 96 -84 l 1
 -90 102 l 1
 96 289 l 1
EndSplineSet
Validated: 1
EndChar

StartChar: arabic_2dots
Encoding: 65537 -1 265
GlifName: arabic_2dots
Width: 517
VWidth: 2812
GlyphClass: 2
Flags: HW
LayerCount: 2
Fore
SplineSet
426.620117188 278.379882812 m 1
 604 101.98046875 l 1
 426.620117188 -76.3798828125 l 1
 250.219726562 101.98046875 l 1
 426.620117188 278.379882812 l 1
87.419921875 278.379882812 m 1
 265.780273438 101.98046875 l 1
 87.419921875 -76.3798828125 l 1
 -88 101.98046875 l 1
 87.419921875 278.379882812 l 1
EndSplineSet
Validated: 5
EndChar

StartChar: arabic_3dots
Encoding: 65538 -1 266
GlifName: arabic_3dots
Width: 528
VWidth: 2805
GlyphClass: 2
Flags: HW
LayerCount: 2
Fore
SplineSet
255 487.75819125 m 1
 420.75819125 322 l 1
 255 156.24180875 l 1
 89.24180875 322 l 1
 255 487.75819125 l 1
431 231.75819125 m 1
 596.75819125 66 l 1
 431 -99.75819125 l 1
 265.24180875 66 l 1
 431 231.75819125 l 1
80 231.75819125 m 1
 245.75819125 66 l 1
 80 -99.75819125 l 1
 -85.75819125 66 l 1
 80 231.75819125 l 1
EndSplineSet
Validated: 1
EndChar

StartChar: arabic_3dots_a
Encoding: 65539 -1 267
GlifName: arabic_3dots_a
Width: 528
VWidth: 2820
GlyphClass: 2
Flags: HW
LayerCount: 2
Fore
SplineSet
255 44.75819125 m 1
 420.75819125 -121 l 1
 255 -286.75819125 l 1
 89.24180875 -121 l 1
 255 44.75819125 l 1
431 300.75819125 m 1
 596.75819125 135 l 1
 431 -30.75819125 l 1
 265.24180875 135 l 1
 431 300.75819125 l 1
80 300.75819125 m 1
 245.75819125 135 l 1
 80 -30.75819125 l 1
 -85.75819125 135 l 1
 80 300.75819125 l 1
EndSplineSet
Validated: 1
EndChar

StartChar: uni066E.fina
Encoding: 65540 -1 268
GlifName: uni066E_.fina
Width: 1933
VWidth: 3091
GlyphClass: 2
Flags: HW
AnchorPoint: "Anchor110" 948 1073 basechar 0
AnchorPoint: "Anchor107" 932 -237 basechar 0
LayerCount: 2
Fore
SplineSet
1491 733 m 1
 1758 767 l 1
 1780 470 l 2
 1786 374 1825 310 1930 310 c 2
 1952 310 l 1
 1952 0 l 1
 1930 0 l 2
 1777 0 1678 61 1611 154 c 1
 1488 45 1325 0 1052 0 c 2
 885 0 l 2
 432 0 79 118 79 536 c 0
 79 662 110 784 152 884 c 1
 409 787 l 1
 386.136014223 723.37847436 353.996579162 630.109774789 353.996579162 552.385449235 c 0
 353.996579162 348.897146848 610.569620114 310 885 310 c 2
 1052 310 l 2
 1336 310 1502 349 1502 504 c 0
 1502 575 1496 667 1491 733 c 1
EndSplineSet
EndChar

StartChar: uni06A1.fina
Encoding: 65541 -1 269
GlifName: uni06A_1.fina
Width: 1933
VWidth: 3091
GlyphClass: 2
Flags: HW
AnchorPoint: "Anchor107" 939 -236 basechar 0
AnchorPoint: "Anchor110" 1440 1325 basechar 0
LayerCount: 2
Fore
SplineSet
1455 662 m 4
 1401 662 1322 584 1322 530 c 4
 1322 458 1406 387 1457 359 c 5
 1511 390 1593 458 1593 532 c 4
 1593 587 1508 662 1455 662 c 4
885 310 m 2
 963 310 l 6
 1018 310 1064 310 1114 311 c 5
 1069 381 1050 452 1050 534 c 4
 1050 753 1251 959 1453 959 c 4
 1660 959 1865 755 1865 532 c 4
 1865 449 1846 379 1800 310 c 5
 1821 310 1840 310 1857 310 c 6
 1952 310 l 5
 1952 0 l 5
 1809 0 l 6
 1691 0 1562 43 1453 79 c 5
 1340 41 1125 0 1001 0 c 6
 885 0 l 2
 432 0 79 118 79 536 c 0
 79 662 110 784 152 884 c 1
 409 787 l 1
 386.136014223 723.37847436 353.996579162 630.109774789 353.996579162 552.385449235 c 0
 353.996579162 348.897146848 610.569620114 310 885 310 c 2
EndSplineSet
EndChar

StartChar: uni06A1.init
Encoding: 65542 -1 270
GlifName: uni06A_1.init
Width: 967
VWidth: 3091
GlyphClass: 2
Flags: HW
AnchorPoint: "Anchor110" 449 1443 basechar 0
AnchorPoint: "Anchor107" 366 -262 basechar 0
LayerCount: 2
Fore
SplineSet
461 659 m 4
 510 659 561 663 608 673 c 5
 593 759 545 888 461 888 c 4
 386 888 340 807 340 733 c 4
 340 666 397 659 461 659 c 4
360 310 m 2
 519 310 611 323 614 411 c 1
 570 404 517 400 469 400 c 0
 231 400 78 492 78 720 c 0
 78 940 230 1186 463 1186 c 0
 777 1186 888 842 888 522 c 0
 888 102 718 0 348 0 c 2
 -18 0 l 1
 -18 310 l 1
 360 310 l 2
EndSplineSet
Validated: 1
EndChar

StartChar: uni06A1.medi
Encoding: 65543 -1 271
GlifName: uni06A_1.medi
Width: 1019
VWidth: 3091
GlyphClass: 2
Flags: HW
AnchorPoint: "Anchor110" 534 1349 basechar 0
AnchorPoint: "Anchor107" 533 -262 basechar 0
LayerCount: 2
Fore
SplineSet
541 662 m 0
 487 662 408 584 408 530 c 0
 408 458 492 387 543 359 c 5
 597 390 679 458 679 532 c 0
 679 587 594 662 541 662 c 0
951 532 m 0
 951 449 932 379 886 310 c 5
 907 310 926 310 943 310 c 6
 1038 310 l 5
 1038 0 l 1
 895 0 l 2
 777 0 648 43 539 79 c 1
 426 41 294 0 170 0 c 2
 -18 0 l 1
 -18 310 l 5
 131 310 l 6
 156 310 171 310 200 311 c 5
 155 381 136 452 136 534 c 0
 136 753 337 959 539 959 c 4
 746 959 951 755 951 532 c 0
EndSplineSet
Validated: 1
EndChar

StartChar: uni066F.fina
Encoding: 65544 -1 272
GlifName: uni066F_.fina
Width: 1439
VWidth: 2834
GlyphClass: 2
Flags: HW
AnchorPoint: "Anchor107" 733 -730 basechar 0
AnchorPoint: "Anchor110" 969 1165 basechar 0
LayerCount: 2
Fore
SplineSet
728 -514 m 0
 297 -514 82 -244 82 122 c 0
 82 284 119 461 187 635 c 1
 446 536 l 1
 395 392 356 253 356 137 c 0
 356 -51 451 -208 728 -208 c 0
 957 -208 1103 -146 1129 0 c 1
 1016 0 l 2
 744 0 586 107 586 368 c 0
 586 565 705 866 973 866 c 0
 1244 866 1368 580 1392 310 c 1
 1458 310 l 1
 1458 0 l 1
 1393 0 l 1
 1366 -368 1117 -514 728 -514 c 0
1006 310 m 2
 1125 310 l 1
 1113 394 1078 561 971 561 c 0
 884 561 854 443 854 380 c 0
 854 312 920 310 1006 310 c 2
EndSplineSet
EndChar

StartChar: arabic_gaf_bar
Encoding: 65545 -1 273
GlifName: arabic_gaf_bar
Width: 787
VWidth: 2900
GlyphClass: 2
Flags: HW
LayerCount: 2
Fore
SplineSet
-60 1558 m 5
 -60 1718 l 5
 763 2053 l 5
 763 1893 l 5
 -60 1558 l 5
EndSplineSet
EndChar

StartChar: guillemotleft
Encoding: 171 171 283
GlifName: guillemotleft
Width: 988
VWidth: 2075
Flags: HW
LayerCount: 2
Fore
SplineSet
509.876953125 116.3203125 m 1
 355.81640625 -25.9775390625 l 1
 164.703125 185.887695312 78.8818359375 348.9609375 78.8818359375 512.024414062 c 0
 78.8818359375 674.86328125 164.4375 837.692382812 356.07421875 1049.09375 c 1
 509.828125 905.389648438 l 1
 403.267578125 735.638671875 350.27734375 623.619140625 350.27734375 511.657226562 c 0
 350.27734375 399.266601562 403.672851562 286.93359375 509.876953125 116.3203125 c 1
912.876953125 116.3203125 m 1
 758.81640625 -25.9775390625 l 1
 567.703125 185.887695312 471.881835938 348.9609375 471.881835938 512.024414062 c 0
 471.881835938 674.86328125 567.4375 837.692382812 759.07421875 1049.09375 c 1
 912.828125 905.389648438 l 1
 806.267578125 735.638671875 753.27734375 623.619140625 753.27734375 511.657226562 c 0
 753.27734375 399.266601562 806.672851562 286.93359375 912.876953125 116.3203125 c 1
EndSplineSet
EndChar

StartChar: guillemotright
Encoding: 187 187 284
GlifName: guillemotright
Width: 988
VWidth: 2075
Flags: HW
LayerCount: 2
Fore
SplineSet
477.881835938 116.3203125 m 5
 584.0859375 286.93359375 637.481445312 399.266601562 637.481445312 511.657226562 c 4
 637.481445312 623.619140625 584.491210938 735.638671875 477.930664062 905.389648438 c 5
 631.684570312 1049.09375 l 5
 823.321289062 837.692382812 908.876953125 674.86328125 908.876953125 512.024414062 c 4
 908.876953125 348.9609375 823.055664062 185.887695312 631.942382812 -25.9775390625 c 5
 477.881835938 116.3203125 l 5
74.8818359375 116.3203125 m 5
 181.084960938 286.93359375 234.48046875 399.266601562 234.48046875 511.65625 c 4
 234.48046875 623.619140625 181.491210938 735.638671875 74.9306640625 905.389648438 c 5
 228.684570312 1049.09375 l 5
 420.321289062 837.692382812 515.876953125 674.86328125 515.876953125 512.024414062 c 4
 515.876953125 348.9609375 420.055664062 185.887695312 228.942382812 -25.9775390625 c 5
 74.8818359375 116.3203125 l 5
EndSplineSet
EndChar

StartChar: NameMe.302
Encoding: 65556 -1 293
GlifName: N_ameM_e.302
Width: 530
VWidth: 3091
Flags: HW
LayerCount: 2
Fore
SplineSet
510 0 m 2
 401 0 319 47 264 106 c 1
 206 45 138 0 23 0 c 2
 -17 0 l 1
 -17 310 l 5
 25 310 l 6
 119 310 120 405 120 528 c 6
 120 1125 l 1
 412 1125 l 1
 412 528 l 6
 412 420 413 310 507 310 c 6
 548 310 l 5
 548 0 l 1
 510 0 l 2
EndSplineSet
Validated: 1
EndChar

StartChar: NameMe.303
Encoding: 65557 -1 294
GlifName: N_ameM_e.303
Width: 545
VWidth: 3091
Flags: HW
LayerCount: 2
Fore
SplineSet
-18 310 m 5
 11 310 l 6
 115 310 121 396 121 500 c 6
 121 1285 l 1
 414 1285 l 1
 414 472 l 6
 414 178 307 0 10 0 c 2
 -18 0 l 1
 -18 310 l 5
EndSplineSet
Validated: 1
EndChar

StartChar: uniFDF2
Encoding: 65010 65010 295
GlifName: uniF_D_F_2
Width: 2738
VWidth: 3103
Flags: HW
AnchorPoint: "Anchor107" 597 -223 basechar 0
AnchorPoint: "Anchor110" 747 1352 basechar 0
LayerCount: 2
Fore
SplineSet
1313 1636 m 1
 1313 1949 l 1
 1422 1949 l 1
 1422 1636 l 1
 1313 1636 l 1
EndSplineSet
Refer: 52 1617 N 1 0 0 1 1065 240 2
Refer: 245 65258 N 1 0 0 1 0 0 2
Refer: 293 -1 N 1 0 0 1 1115 0 2
Refer: 294 -1 N 1 0 0 1 1658 0 2
Refer: 15 1575 N 1 0 0 1 2183 0 2
Validated: 5
LCarets2: 3 0 0 0
Ligature2: "'liga' Standard Ligatures in Arabic lookup 9 subtable" uni0627 uniFEDF uniFEE0 uniFEEA
EndChar

StartChar: NameMe.65564
Encoding: 65558 -1 297
GlifName: N_ameM_e.65564
Width: 576
VWidth: 3091
Flags: HW
LayerCount: 2
Fore
SplineSet
131 1277 m 1
 424 1277 l 1
 424 501 l 6
 424 368 443 310 571 310 c 6
 594 310 l 5
 594 0 l 1
 571 0 l 2
 274 0 131 158 131 471 c 6
 131 1277 l 1
EndSplineSet
Validated: 1
EndChar

StartChar: NameMe.65565
Encoding: 65559 -1 298
GlifName: N_ameM_e.65565
Width: 696
VWidth: 2996
Flags: HW
LayerCount: 2
Fore
SplineSet
507 230 m 0
 530 230 585 221 621 206 c 1
 597 84 l 1
 571 92 531 101 507 101 c 0
 427 101 378 42 378 -8 c 0
 378 -29 378 -30 401 -30 c 2
 493 -30 l 2
 574 -30 622 -81 622 -149 c 0
 622 -340 459 -422 268 -422 c 0
 186 -422 123 -404 67 -379 c 1
 124 -259 l 1
 164 -279 204 -294 270 -294 c 0
 365 -294 500 -257 500 -169 c 0
 500 -167 494 -160 469 -160 c 2
 396 -160 l 2
 306 -160 251 -107 251 -15 c 0
 251 135 375 230 507 230 c 0
EndSplineSet
Validated: 1
EndChar

StartChar: uni060D
Encoding: 1549 1549 299
GlifName: uni060D_
Width: 899
VWidth: 4090
Flags: HW
LayerCount: 2
Fore
SplineSet
848.862565269 1519.41464425 m 1
 620.420416508 1593.19168062 l 1
 27.1374347305 -140.414644247 l 1
 255.579583492 -214.191680617 l 1
 848.862565269 1519.41464425 l 1
EndSplineSet
EndChar

StartChar: uni066E.init
Encoding: 65560 -1 300
GlifName: N_ameM_e.65541
Width: 614
VWidth: 2834
Flags: HW
AnchorPoint: "Anchor110" 309 1061 basechar 0
AnchorPoint: "Anchor107" 199 -245 basechar 0
LayerCount: 2
Fore
SplineSet
92 0 m 2
 -19 0 l 1
 -19 310 l 1
 90 310 l 2
 195 310 261 329 261 452 c 4
 261 525 247 646 206 808 c 1
 482 882 l 1
 516 739 535 613 535 491 c 0
 535 191 415 0 92 0 c 2
EndSplineSet
EndChar

StartChar: uni066E.medi
Encoding: 65561 -1 301
GlifName: N_ameM_e.65542
Width: 690
VWidth: 2834
Flags: HW
AnchorPoint: "Anchor107" 241 -245 basechar 0
AnchorPoint: "Anchor110" 368 987 basechar 0
LayerCount: 2
Fore
SplineSet
250 726 m 5
 516 758 l 5
 537 462 l 6
 543 367 585 310 689 310 c 6
 709 310 l 5
 709 0 l 5
 687 0 l 6
 556 0 460 53 397 125 c 5
 315 49 201 0 76 0 c 6
 -19 0 l 5
 -19 310 l 5
 76 310 l 6
 218 310 261 364 261 494 c 4
 261 574 256 652 250 726 c 5
EndSplineSet
Validated: 1
EndChar

StartChar: uni06BE
Encoding: 1726 1726 318
GlifName: uni06B_E_
Width: 1615
VWidth: 2834
Flags: HW
AnchorPoint: "Anchor110" 821 1344 basechar 0
AnchorPoint: "Anchor107" 595 -251 basechar 0
LayerCount: 2
Fore
SplineSet
38 310 m 5
 163 310 l 5
 163 0 l 1
 121 0 l 1
 38 310 l 5
EndSplineSet
Refer: 246 65259 N 1 0 0 1 162 0 2
Substitution2: "'medi' Medial Forms in Arabic lookup 2 subtable" uniFBAD
Substitution2: "'init' Initial Forms in Arabic lookup 3 subtable" uniFBAC
Substitution2: "'fina' Terminal Forms in Arabic lookup 1 subtable" uniFBAB
EndChar

StartChar: figuredash
Encoding: 8210 8210 321
GlifName: figuredash
Width: 1025
Flags: HW
LayerCount: 2
Fore
SplineSet
910 398 m 5
 115 398 l 1
 115 639 l 1
 910 639 l 5
 910 398 l 5
EndSplineSet
EndChar

StartChar: NameMe.65583
Encoding: 65571 -1 332
GlifName: N_ameM_e.65583
Width: 471
VWidth: 2739
Flags: HW
AnchorPoint: "Anchor101" 246 1226 mark 0
AnchorPoint: "Anchor101" 270 1696 basemark 0
AnchorPoint: "Anchor109" 246 1226 mark 0
AnchorPoint: "Anchor110" 246 1226 mark 0
LayerCount: 2
Fore
SplineSet
205 1361 m 2
 380 1361 425 1377 425 1441 c 0
 425 1488 393 1522 342 1522 c 0
 278 1522 232 1481 153 1361 c 1
 205 1361 l 2
-57 1331 m 1
 -34 1424 l 1
 -13 1407 15 1391 42 1377 c 1
 149 1555 227 1630 337 1630 c 0
 449 1630 529 1551 529 1445 c 0
 529 1303 436 1255 207 1255 c 2
 182 1255 l 2
 58 1255 -23 1276 -57 1331 c 1
EndSplineSet
Validated: 1
EndChar

StartChar: uni06CD
Encoding: 1741 1741 344
GlifName: uni06C_D_
Width: 1674
VWidth: 3094
Flags: HW
AnchorPoint: "Anchor107" 909 -709 basechar 0
AnchorPoint: "Anchor110" 723 929 basechar 0
LayerCount: 2
Fore
SplineSet
308 325 m 1
 33 166 l 1
 101 485 l 1
 376 645 l 1
 308 325 l 1
EndSplineSet
Refer: 44 1609 N 1 0 0 1 189 0 2
Substitution2: "'fina' Terminal Forms in Arabic lookup 1 subtable" uni06CD.fina
EndChar

StartChar: uni06D0.dots
Encoding: 65572 -1 345
GlifName: N_ameM_e.65587
Width: 528
VWidth: 2809
Flags: HW
LayerCount: 2
Fore
SplineSet
256 166 m 1
 435 -12 l 1
 256 -194 l 1
 78 -12 l 1
 256 166 l 1
256 452 m 1
 435 274 l 1
 256 92 l 1
 78 274 l 1
 256 452 l 1
EndSplineSet
Validated: 5
EndChar

StartChar: uni06CD.fina
Encoding: 65573 -1 346
GlifName: uni06C_D_.fina
Width: 1549
VWidth: 2834
Flags: HW
AnchorPoint: "Anchor110" 886 746 basechar 0
AnchorPoint: "Anchor107" 936 -732 basechar 0
LayerCount: 2
Fore
SplineSet
300 280 m 1
 34 123 l 1
 96 440 l 1
 368 600 l 1
 300 280 l 1
EndSplineSet
Refer: 251 65264 N 1 0 0 1 190 0 2
EndChar

StartChar: uni06D2
Encoding: 1746 1746 375
GlifName: uni06D_2
Width: 1878
VWidth: -3
Flags: HW
AnchorPoint: "Anchor107" 950 -192 basechar 0
AnchorPoint: "Anchor110" 640 1251 basechar 0
LayerCount: 2
Fore
SplineSet
872 300 m 4
 1304 300 1567 345 1799 379 c 5
 1811 70 l 1
 1598 42 1314 1 874 1 c 0
 543 1 79 65 79 395 c 0
 79 590 243 651 335 768 c 0
 414 870 475 1061 636 1061 c 0
 789 1061 984 760 1040 658 c 1
 855 468 l 1
 793 550 722 641 654 716 c 1
 612 650 586 608 534 548 c 0
 465 469 365 435 365 420 c 0
 365 368 746 300 872 300 c 4
EndSplineSet
Validated: 1
Position2: "Single Positioning lookup 2 subtable" dx=0 dy=0 dh=-126 dv=0
Position2: "Single Positioning lookup 1 subtable" dx=0 dy=0 dh=-126 dv=0
Substitution2: "'fina' Terminal Forms in Arabic lookup 1 subtable" uniFBAF
EndChar

StartChar: uni06D4
Encoding: 1748 1748 377
GlifName: uni06D_4
Width: 672
VWidth: 3091
Flags: HW
LayerCount: 2
Fore
SplineSet
75 302 m 1
 597 302 l 5
 597 0 l 5
 75 0 l 1
 75 302 l 1
EndSplineSet
EndChar

StartChar: uniFBA7
Encoding: 64423 64423 378
GlifName: uniF_B_A_7
Width: 997
VWidth: 3091
Flags: HW
AnchorPoint: "Anchor110" 521 996 basechar 0
AnchorPoint: "Anchor107" 497 -219 basechar 0
LayerCount: 2
Fore
SplineSet
535 421 m 0
 462 421 352 162 338 -34 c 1
 74 30 l 1
 103 336 264 750 537 750 c 4
 718 750 782 589 829 482 c 4
 860 409 890 310 985 310 c 6
 1016 310 l 5
 1016 0 l 1
 986 0 l 2
 742 0 647 172 575 339 c 0
 560 374 550 421 535 421 c 0
EndSplineSet
Validated: 1
EndChar

StartChar: uniFBA8
Encoding: 64424 64424 379
GlifName: uniF_B_A_8
Width: 614
VWidth: 3094
Flags: HW
AnchorPoint: "Anchor107" 278 -747 basechar 0
AnchorPoint: "Anchor110" 336 1063 basechar 0
LayerCount: 2
Fore
SplineSet
446.038085938 -165.91796875 m 1
 390.1484375 -217.336914062 349.162109375 -270.991210938 334.2578125 -345.51171875 c 1
 392.383789062 -359.669921875 425.91796875 -408.853515625 425.91796875 -476.666992188 c 0
 425.91796875 -560.12890625 374.499023438 -618.254882812 288.055664062 -618.254882812 c 0
 186.708007812 -618.254882812 135.290039062 -551.931640625 135.290039062 -454.310546875 c 0
 135.290039062 -291.857421875 212.790039062 -163.682617188 329.787109375 -72.7685546875 c 1
 446.038085938 -165.91796875 l 1
EndSplineSet
Refer: 300 -1 N 1 0 0 1 0 0 3
EndChar

StartChar: uniFBA9
Encoding: 64425 64425 380
GlifName: uniF_B_A_9
Width: 1020
VWidth: 2144
Flags: HW
AnchorPoint: "Anchor107" 633 -745 basechar 0
AnchorPoint: "Anchor110" 507 933 basechar 0
LayerCount: 2
Fore
SplineSet
787 -249 m 0
 787 -288 790 -328 793 -367 c 1
 608 -538 l 1
 438 -448 235 -290 179 24 c 1
 140 10 97 0 46 0 c 2
 -18 0 l 1
 -18 310 l 1
 48 310 l 2
 235 310 301 426 406 533 c 1
 602 316 l 1
 538 259 454 191 454 107 c 0
 454 10 522 -113 558 -150 c 5
 586 70 706 310 1007 310 c 2
 1039 310 l 1
 1039 0 l 1
 1005 0 l 2
 840 0 787 -72 787 -249 c 0
EndSplineSet
Validated: 1
EndChar

StartChar: uniFBAB
Encoding: 64427 64427 382
GlifName: uniF_B_A_B_
Width: 1194
VWidth: 2834
Flags: HW
AnchorPoint: "Anchor110" 701 1252 basechar 0
AnchorPoint: "Anchor107" 747 -725 basechar 0
LayerCount: 2
Fore
SplineSet
50 310 m 1
 175 310 l 1
 175 0 l 1
 133 0 l 1
 50 310 l 1
EndSplineSet
Refer: 247 65260 N 1 0 0 1 174 0 2
Validated: 5
EndChar

StartChar: uni0658
Encoding: 1624 1624 387
GlifName: uni0658
Width: 0
VWidth: 2347
Flags: HW
AnchorPoint: "Anchor107" 284 -176 basechar 0
AnchorPoint: "Anchor110" 325 988 mark 0
AnchorPoint: "Anchor109" 325 988 mark 0
AnchorPoint: "Anchor101" 321 1315 basemark 0
AnchorPoint: "Anchor101" 325 988 mark 0
LayerCount: 2
Fore
SplineSet
574 1302 m 5
 559 1144 480 1011 313 1011 c 0
 145 1011 68 1145 53 1302 c 1
 175 1302 l 1
 188 1202 219 1135 313 1135 c 0
 407 1135 437 1204 450 1302 c 1
 574 1302 l 5
EndSplineSet
Validated: 1
EndChar

StartChar: uniFBC0
Encoding: 64448 64448 388
GlifName: uniF_B_C_0
Width: 810
VWidth: 2748
Flags: HW
LayerCount: 2
Fore
SplineSet
366 1528 m 2
 534 1528 595 1564 595 1615 c 0
 595 1655 569 1682 526 1682 c 0
 471 1682 403 1624 334 1527 c 1
 366 1528 l 2
205 1527 m 1
 213 1541 223 1555 229 1568 c 1
 229 2013 l 1
 345 2013 l 1
 345 1721 l 1
 399 1772 455 1804 521 1804 c 0
 635 1804 715 1725 715 1618 c 0
 714 1473 587 1407 367 1407 c 2
 95 1407 l 1
 95 1527 l 1
 205 1527 l 1
EndSplineSet
Validated: 1
EndChar

StartChar: uniFBBF
Encoding: 64447 64447 393
GlifName: uniF_B_B_F_
Width: 567
VWidth: 0
Flags: HW
LayerCount: 2
Fore
SplineSet
199 -317 m 0
 199 -364 236 -401 284 -401 c 0
 332 -401 368 -365 368 -317 c 0
 368 -269 331 -232 284 -232 c 0
 237 -232 199 -270 199 -317 c 0
89 -317 m 0
 89 -210 177 -123 284 -123 c 0
 391 -123 478 -210 478 -317 c 0
 478 -424 391 -512 284 -512 c 0
 177 -512 89 -424 89 -317 c 0
EndSplineSet
Validated: 1
EndChar

StartChar: uniFBAF.compact
Encoding: 65598 -1 398
GlifName: uniF_B_A_F_.compact
Width: 1289
VWidth: 3091
Flags: HW
AnchorPoint: "Anchor107" 879 -666 basechar 0
AnchorPoint: "Anchor110" 830 642 basechar 0
LayerCount: 2
Fore
SplineSet
882 -209 m 0
 1269 -209 1366 -164 1505 -122 c 1
 1569 -402 l 1
 1386 -449 1212 -492 884 -492 c 0
 553 -492 79 -449 79 -139 c 0
 79 96 452 310 727 310 c 2
 1309 310 l 1
 1309 0 l 1
 722 0 l 2
 596 0 387 -98 387 -124 c 0
 387 -167 735 -209 882 -209 c 0
EndSplineSet
Validated: 1
EndChar

StartChar: uni06F4.locl
Encoding: 65600 -1 402
GlifName: uni06F_4.urdu
Width: 1348
VWidth: 3091
Flags: HW
LayerCount: 2
Fore
SplineSet
141 1093 m 0
 141 1253 245 1367 398 1367 c 0
 626 1367 775 1169 861 1013 c 1
 896 1144 944 1287 998 1387 c 1
 1270 1240 l 1
 1148 1072 1076 939 1026 614 c 1
 766 614 l 1
 705 778 565 1067 441 1067 c 0
 438 1067 437 1066 437 1061 c 0
 437 1038 446 1002 455 965 c 0
 485 837 530 606 530 185 c 2
 530 0 l 1
 236 0 l 1
 236 188 l 2
 236 568 200 771 169 911 c 0
 155 976 141 1036 141 1093 c 0
EndSplineSet
EndChar

StartChar: uni06F7.locl
Encoding: 65601 -1 403
GlifName: uni06F_7.urdu
Width: 1179
VWidth: 3091
Flags: HW
LayerCount: 2
Fore
SplineSet
1096 304 m 1
 1096 0 l 1
 94 0 l 1
 94 535 517 1034 866 1385 c 5
 1087 1175 l 5
 796 901 539 649 424 304 c 1
 1096 304 l 1
EndSplineSet
Validated: 1
EndChar

StartChar: uni06E9
Encoding: 1769 1769 408
GlifName: uni06E_9
Width: 1215
VWidth: 0
Flags: HW
LayerCount: 2
Fore
SplineSet
469 41 m 5
 536 91 l 5
 536 682 l 5
 388 830 l 5
 608 1051 l 5
 828 830 l 5
 680 682 l 5
 680 91 l 5
 747 41 l 5
 469 41 l 5
545 830 m 5
 608 767 l 5
 671 830 l 5
 608 894 l 5
 545 830 l 5
258 830 m 5
 445 643 l 5
 445 137 l 5
 240 -14 l 5
 240 -51 l 5
 976 -51 l 5
 976 -14 l 5
 771 137 l 5
 771 643 l 5
 958 830 l 5
 608 1180 l 5
 258 830 l 5
101 830 m 5
 608 1337 l 5
 1114 830 l 5
 882 598 l 5
 882 194 l 5
 1087 43 l 5
 1087 -162 l 5
 129 -162 l 5
 129 43 l 5
 334 194 l 5
 334 598 l 5
 101 830 l 5
EndSplineSet
Validated: 1
EndChar

StartChar: uni06DE
Encoding: 1758 1758 409
GlifName: uni06D_E_
Width: 2036
VWidth: 0
Flags: HW
LayerCount: 2
Fore
SplineSet
472 209 m 5
 472 35 l 5
 645 35 l 5
 472 209 l 5
753 -72 m 5
 365 -72 l 5
 365 316 l 5
 91 590 l 5
 365 863 l 5
 365 1244 l 5
 746 1244 l 5
 1015 1514 l 5
 1284 1244 l 5
 1672 1244 l 5
 1672 856 l 5
 1946 583 l 5
 1672 309 l 5
 1672 -72 l 5
 1291 -72 l 5
 1021 -341 l 5
 753 -72 l 5
1398 35 m 5
 1565 35 l 5
 1565 203 l 5
 1398 35 l 5
1565 963 m 5
 1565 1137 l 5
 1392 1137 l 5
 1565 963 l 5
472 969 m 5
 639 1137 l 5
 472 1137 l 5
 472 969 l 5
472 819 m 5
 472 360 l 5
 795 35 l 5
 1247 35 l 5
 1565 354 l 5
 1565 813 l 5
 1241 1137 l 5
 790 1137 l 5
 472 819 l 5
897 1244 m 5
 1134 1244 l 5
 1015 1362 l 5
 897 1244 l 5
365 712 m 5
 242 589 l 5
 365 466 l 5
 365 712 l 5
1672 707 m 5
 1672 461 l 5
 1795 584 l 5
 1672 707 l 5
1140 -72 m 5
 902 -72 l 5
 1021 -190 l 5
 1140 -72 l 5
938 583 m 4
 938 538 973 504 1018 504 c 4
 1063 504 1098 538 1098 583 c 4
 1098 628 1063 663 1018 663 c 4
 973 663 938 628 938 583 c 4
828 583 m 4
 828 687 914 773 1018 773 c 4
 1122 773 1209 687 1209 583 c 4
 1209 479 1122 392 1018 392 c 4
 914 392 828 479 828 583 c 4
EndSplineSet
Validated: 1
EndChar

StartChar: uni06DD
Encoding: 1757 1757 410
GlifName: uni06D_D_
Width: 2472
VWidth: 0
Flags: HW
LayerCount: 2
Fore
SplineSet
273 1380 m 0
 273 1493 366 1587 479 1587 c 0
 515 1587 552 1577 582 1560 c 1
 767 1690 992 1766 1236 1766 c 0
 1479 1766 1705 1691 1890 1562 c 1
 1920 1578 1955 1587 1990 1587 c 0
 2103 1587 2196 1493 2196 1380 c 0
 2196 1345 2187 1311 2171 1281 c 1
 2301 1096 2376 869 2376 626 c 0
 2376 383 2301 158 2171 -27 c 1
 2187 -57 2196 -92 2196 -127 c 0
 2196 -240 2103 -333 1990 -333 c 0
 1955 -333 1920 -324 1890 -308 c 1
 1705 -438 1479 -514 1236 -514 c 0
 992 -514 766 -438 581 -307 c 1
 551 -324 515 -333 479 -333 c 0
 366 -333 273 -240 273 -127 c 0
 273 -91 283 -54 300 -24 c 1
 172 160 96 384 96 626 c 0
 96 868 171 1094 300 1278 c 1
 283 1308 273 1342 273 1380 c 0
1890 -127 m 0
 1890 -182 1935 -226 1990 -226 c 0
 2045 -226 2089 -182 2089 -127 c 0
 2089 -72 2045 -27 1990 -27 c 0
 1935 -27 1890 -72 1890 -127 c 0
380 -127 m 0
 380 -182 424 -226 479 -226 c 0
 534 -226 579 -182 579 -127 c 0
 579 -72 534 -27 479 -27 c 0
 424 -27 380 -72 380 -127 c 0
1890 1380 m 0
 1890 1325 1935 1281 1990 1281 c 0
 2045 1281 2089 1325 2089 1380 c 0
 2089 1435 2045 1480 1990 1480 c 0
 1935 1480 1890 1435 1890 1380 c 0
380 1380 m 0
 380 1325 424 1281 479 1281 c 0
 534 1281 579 1325 579 1380 c 0
 579 1435 534 1480 479 1480 c 0
 424 1480 380 1435 380 1380 c 0
1784 1358 m 1
 685 1358 l 1
 674 1255 585 1174 479 1174 c 0
 455 1174 432 1178 410 1186 c 1
 302 1026 239 834 239 626 c 0
 239 418 302 228 410 68 c 1
 432 76 455 80 479 80 c 0
 583 80 672 0 685 -101 c 1
 1784 -101 l 1
 1797 0 1886 80 1990 80 c 0
 2015 80 2040 76 2063 67 c 1
 2172 227 2234 418 2234 626 c 0
 2234 834 2171 1027 2062 1187 c 1
 2040 1179 2015 1174 1990 1174 c 0
 1884 1174 1795 1255 1784 1358 c 1
1750 1482 m 1
 1600 1572 1423 1624 1236 1624 c 0
 1049 1624 873 1572 723 1482 c 1
 1750 1482 l 1
715 -224 m 1
 867 -317 1044 -371 1236 -371 c 0
 1428 -371 1606 -317 1758 -224 c 1
 715 -224 l 1
EndSplineSet
Validated: 1
EndChar

StartChar: uniFD3E
Encoding: 64830 64830 411
GlifName: uniF_D_3E_
Width: 889
VWidth: 2075
Flags: HW
LayerCount: 2
Fore
SplineSet
323 1006 m 1
 400 1288 555 1515 768 1606 c 1
 832 1440 l 1
 714 1353 633 1193 586 1006 c 1
 686 1006 l 2
 761 1006 776 991 776 916 c 2
 776 270 l 2
 776 195 761 180 686 180 c 2
 586 180 l 1
 633 -8 713 -169 832 -256 c 1
 768 -422 l 1
 555 -331 399 -103 322 180 c 1
 199 180 l 2
 125 180 109 195 109 270 c 2
 109 916 l 2
 109 991 125 1006 199 1006 c 2
 323 1006 l 1
443 468 m 0
 374 468 318 524 318 593 c 0
 318 662 374 718 443 718 c 0
 512 718 567 662 567 593 c 0
 567 524 512 468 443 468 c 0
443 649 m 0
 412 649 386 623 386 593 c 0
 386 563 412 537 443 537 c 0
 474 537 499 562 499 593 c 0
 499 624 474 649 443 649 c 0
261 854 m 1
 261 332 l 1
 624 332 l 1
 624 854 l 1
 261 854 l 1
EndSplineSet
Validated: 1
EndChar

StartChar: uniFD3F
Encoding: 64831 64831 412
GlifName: uniF_D_3F_
Width: 889
VWidth: 2075
Flags: HW
LayerCount: 2
Fore
SplineSet
566 1006 m 1
 690 1006 l 2
 764 1006 780 991 780 916 c 2
 780 270 l 2
 780 195 764 180 690 180 c 2
 567 180 l 1
 490 -103 334 -331 121 -422 c 1
 57 -256 l 1
 176 -169 256 -8 303 180 c 1
 203 180 l 2
 128 180 113 195 113 270 c 2
 113 916 l 2
 113 991 128 1006 203 1006 c 2
 303 1006 l 1
 256 1193 175 1353 57 1440 c 1
 121 1606 l 1
 334 1515 489 1288 566 1006 c 1
446 468 m 0
 377 468 322 524 322 593 c 0
 322 662 377 718 446 718 c 0
 515 718 571 662 571 593 c 0
 571 524 515 468 446 468 c 0
446 649 m 0
 415 649 390 624 390 593 c 0
 390 562 415 537 446 537 c 0
 477 537 503 563 503 593 c 0
 503 623 477 649 446 649 c 0
628 854 m 1
 265 854 l 1
 265 332 l 1
 628 332 l 1
 628 854 l 1
EndSplineSet
Validated: 1
EndChar

StartChar: uni0610
Encoding: 1552 1552 413
GlifName: uni0610
Width: 0
VWidth: 2748
Flags: HW
AnchorPoint: "Anchor110" 501 1241 mark 0
AnchorPoint: "Anchor109" 501 1241 mark 0
AnchorPoint: "Anchor101" 541 1784 basemark 0
AnchorPoint: "Anchor101" 501 1241 mark 0
LayerCount: 2
Fore
SplineSet
464 1396 m 2
 651 1396 734 1436 734 1505 c 0
 734 1556 698 1593 644 1593 c 0
 574 1593 493 1526 407 1396 c 1
 464 1396 l 2
125 1205 m 1
 146 1241 159 1285 159 1345 c 0
 159 1410 139 1477 109 1540 c 1
 216 1576 l 1
 256 1453 l 2
 265 1432 276 1416 288 1412 c 1
 404 1607 519 1706 641 1706 c 0
 759 1706 845 1620 845 1509 c 0
 844 1356 712 1283 466 1283 c 2
 440 1283 l 2
 362 1283 305 1291 264 1307 c 1
 261 1241 244 1192 219 1147 c 1
 125 1205 l 1
EndSplineSet
Validated: 1
EndChar

StartChar: uni0611
Encoding: 1553 1553 414
GlifName: uni0611
Width: 0
VWidth: 2748
Flags: HW
AnchorPoint: "Anchor110" 504 1265 mark 0
AnchorPoint: "Anchor109" 504 1265 mark 0
AnchorPoint: "Anchor101" 541 1814 basemark 0
AnchorPoint: "Anchor101" 504 1265 mark 0
LayerCount: 2
Fore
SplineSet
267 1282 m 1
 263 1229 243 1182 219 1138 c 1
 125 1195 l 1
 146 1231 159 1275 159 1335 c 0
 159 1400 138 1467 109 1529 c 1
 217 1566 l 1
 246 1465 l 2
 259 1432 277 1404 294 1401 c 1
 369 1401 l 1
 343 1437 321 1476 321 1536 c 0
 321 1667 412 1778 557 1778 c 0
 640 1778 704 1748 757 1695 c 1
 712 1596 l 1
 667 1632 622 1656 575 1657 c 0
 492 1657 435 1601 435 1532 c 0
 435 1514 443 1455 512 1425 c 0
 516 1423 523 1421 526 1422 c 2
 772 1484 l 1
 772 1365 l 1
 598 1310 443 1282 295 1282 c 2
 267 1282 l 1
EndSplineSet
Validated: 1
EndChar

StartChar: uni0612
Encoding: 1554 1554 415
GlifName: uni0612
Width: 0
VWidth: 2748
Flags: HW
AnchorPoint: "Anchor110" 525 976 mark 0
AnchorPoint: "Anchor109" 525 976 mark 0
AnchorPoint: "Anchor101" 529 1939 basemark 0
AnchorPoint: "Anchor101" 525 976 mark 0
LayerCount: 2
Fore
SplineSet
546 1011 m 1
 521 1009 493 1008 466 1008 c 0
 241 1008 86 1100 86 1301 c 0
 86 1480 227 1631 496 1691 c 1
 482 1696 476 1699 445 1712 c 0
 370 1742 322 1761 296 1761 c 0
 253 1761 211 1733 184 1698 c 2
 169 1678 l 1
 85 1720 l 1
 93 1734 l 2
 140 1810 213 1860 297 1860 c 0
 344 1860 399 1838 465 1807 c 0
 581 1751 650 1726 714 1723 c 1
 706 1629 l 1
 409 1605 178 1477 178 1310 c 0
 178 1172 276 1104 474 1104 c 0
 492 1104 511 1105 529 1106 c 1
 546 1011 l 1
890 1628 m 1
 922 1553 941 1474 941 1398 c 0
 941 1235 851 1083 636 1034 c 1
 596 1116 l 1
 776 1160 848 1264 848 1388 c 0
 848 1453 830 1523 800 1595 c 1
 890 1628 l 1
EndSplineSet
Validated: 1
EndChar

StartChar: uni06DC
Encoding: 1756 1756 416
GlifName: uni06D_C_
Width: 0
VWidth: 2748
Flags: HW
AnchorPoint: "Anchor110" 534 1204 mark 0
AnchorPoint: "Anchor109" 534 1204 mark 0
AnchorPoint: "Anchor101" 535 1717 basemark 0
AnchorPoint: "Anchor101" 534 1204 mark 0
LayerCount: 2
Fore
SplineSet
880 1674 m 1
 897 1619 910 1558 910 1503 c 0
 910 1385 866 1275 736 1275 c 0
 682 1275 640 1294 612 1333 c 1
 576 1294 529 1275 475 1275 c 0
 445 1275 419 1280 397 1290 c 1
 384 1111 288 1013 97 1013 c 0
 -115 1013 -206 1113 -206 1321 c 0
 -206 1401 -184 1483 -152 1561 c 1
 -41 1517 l 1
 -65 1452 -83 1383 -83 1324 c 0
 -83 1190 -42 1136 100 1136 c 0
 243 1136 279 1203 279 1343 c 0
 279 1408 256 1477 226 1540 c 1
 349 1582 l 1
 360 1546 373 1508 384 1472 c 0
 398 1428 420 1402 476 1402 c 0
 535 1402 551 1431 551 1489 c 0
 551 1502 547 1557 544 1595 c 1
 664 1609 l 1
 664 1609 667 1526 674 1477 c 0
 679 1440 692 1402 736 1402 c 0
 778 1402 788 1445 788 1496 c 0
 788 1532 776 1591 761 1642 c 1
 880 1674 l 1
EndSplineSet
Validated: 1
EndChar

StartChar: uni220E
Encoding: 8718 8718 419
GlifName: uni220E_
Width: 983
VWidth: 2075
Flags: HW
LayerCount: 2
Fore
SplineSet
142 0 m 1
 142 977 l 1
 841 977 l 1
 841 0 l 1
 142 0 l 1
EndSplineSet
Validated: 1
EndChar

StartChar: NameMe.65623
Encoding: 65608 -1 420
GlifName: N_ameM_e.65623
Width: 1855
VWidth: 2989
Flags: HW
LayerCount: 2
Fore
SplineSet
705 613 m 1
 751.263755143 602.042794835 809.22063031 596.888521251 861.760702563 596.888521251 c 0
 938.686304212 596.888521251 1004 607.937647568 1004 628 c 0
 1004 655 738 649 738 814 c 0
 738 982 945 1060 1107 1061 c 1
 1116 907 l 1
 1055 907 881 872 881 822 c 0
 881 798.648482438 1007.58725383 794.029803123 1085 741 c 4
 1120.30084355 716.817977323 1143 683.050077569 1143 632 c 0
 1143 492.964182846 1004.39378428 450.258723775 857.98774911 450.258723775 c 0
 806.024941979 450.258723775 753.079591321 455.638331944 705 464 c 1
 705 613 l 1
EndSplineSet
EndChar

StartChar: uni06AA
Encoding: 1706 1706 433
GlifName: uni06A_A_
Width: 2070
VWidth: 3091
Flags: HW
AnchorPoint: "Anchor110" 709 1137 basechar 0
AnchorPoint: "Anchor107" 885 -240 basechar 0
LayerCount: 2
Fore
SplineSet
1188 0 m 2
 819 0 l 2
 629 0 257 41 71 82 c 1
 112 372 l 1
 377 337 663 310 809 310 c 2
 1187 310 l 2
 1505 310 1707 345 1707 398 c 0
 1707 500 1384 521 1201 521 c 2
 885 521 l 2
 720 521 544 577 544 747 c 0
 544 845 599 912 655 959 c 0
 875 1138 1221 1285 1530 1391 c 1
 1530 1088 l 1
 1316 1019 1119 933 942 821 c 1
 1196 821 l 2
 1593 821 2002 761 2002 395 c 0
 2002 49 1544 0 1188 0 c 2
EndSplineSet
Position2: "Single Positioning lookup 2 subtable" dx=0 dy=0 dh=-168 dv=0
Position2: "Single Positioning lookup 1 subtable" dx=0 dy=0 dh=-157 dv=0
Substitution2: "'init' Initial Forms in Arabic lookup 3 subtable" uni06AA.init
Substitution2: "'medi' Medial Forms in Arabic lookup 2 subtable" uni06AA.medi
Substitution2: "'fina' Terminal Forms in Arabic lookup 1 subtable" uni06AA.fina
EndChar

StartChar: uni06AA.fina
Encoding: 65609 -1 434
GlifName: uni06A_A_.fina
Width: 2122
VWidth: 3091
Flags: HW
AnchorPoint: "Anchor107" 987 -240 basechar 0
AnchorPoint: "Anchor110" 709 1167 basechar 0
LayerCount: 2
Fore
SplineSet
1190 0 m 2
 821 0 l 2
 631 0 259 41 73 82 c 1
 114 358 l 1
 379 323 665 310 811 310 c 2
 1189 310 l 2
 1507 310 1709 345 1709 398 c 0
 1709 500 1386 521 1203 521 c 2
 887 521 l 2
 722 521 546 577 546 747 c 0
 546 845 601 912 657 959 c 0
 877 1138 1223 1285 1532 1391 c 1
 1532 1088 l 1
 1318 1019 1121 933 944 821 c 1
 1198 821 l 2
 1595 821 2004 761 2004 395 c 4
 2004 386 2003 325 2001 320 c 1
 2030 312 2057 310 2093 310 c 2
 2143 310 l 1
 2143 0 l 1
 2093 0 l 2
 1955 0 1857 40 1780 95 c 1
 1616 21 1388 0 1190 0 c 2
EndSplineSet
EndChar

StartChar: uni06AA.medi
Encoding: 65610 -1 435
GlifName: uni06A_A_.medi
Width: 1701
VWidth: 3091
Flags: HW
AnchorPoint: "Anchor110" 327 1178 basechar 0
AnchorPoint: "Anchor107" 813 -248 basechar 0
LayerCount: 2
Fore
SplineSet
1672 0 m 2
 1534 0 1434 39 1357 94 c 1
 1201 24 993 0 767 0 c 2
 -18 0 l 1
 -18 310 l 5
 766 310 l 6
 1084 310 1286 345 1286 398 c 0
 1286 500 963 521 780 521 c 2
 464 521 l 2
 299 521 123 577 123 747 c 0
 123 845 178 912 234 959 c 0
 454 1138 800 1285 1109 1391 c 1
 1109 1088 l 1
 895 1019 697 933 521 821 c 1
 775 821 l 2
 1172 821 1581 761 1581 395 c 4
 1581 386 1580 327 1578 320 c 5
 1603 312 1636 310 1672 310 c 6
 1721 310 l 5
 1721 0 l 1
 1672 0 l 2
EndSplineSet
EndChar

StartChar: uni06AA.init
Encoding: 65611 -1 436
GlifName: uni06A_A_.init
Width: 1659
VWidth: 3091
Flags: HW
AnchorPoint: "Anchor107" 813 -248 basechar 0
AnchorPoint: "Anchor110" 327 1178 basechar 0
LayerCount: 2
Fore
SplineSet
780 521 m 2
 464 521 l 2
 299 521 123 577 123 747 c 0
 123 845 178 912 234 959 c 0
 454 1138 800 1285 1109 1391 c 1
 1109 1088 l 1
 895 1019 698 933 521 821 c 1
 775 821 l 2
 1172 821 1581 761 1581 395 c 4
 1581 49 1123 0 767 0 c 2
 -18 0 l 1
 -18 310 l 5
 766 310 l 6
 1084 310 1286 345 1286 398 c 0
 1286 500 963 521 780 521 c 2
EndSplineSet
Position2: "Single Positioning lookup 2 subtable" dx=0 dy=0 dh=-168 dv=0
Position2: "Single Positioning lookup 1 subtable" dx=0 dy=0 dh=-157 dv=0
EndChar

StartChar: uni065B
Encoding: 1627 1627 452
GlifName: uni065B_
Width: 0
VWidth: 2347
Flags: HW
AnchorPoint: "Anchor110" 575 1419 mark 0
AnchorPoint: "Anchor109" 575 1419 mark 0
AnchorPoint: "Anchor101" 581 1807 basemark 0
AnchorPoint: "Anchor101" 575 1419 mark 0
LayerCount: 2
Fore
SplineSet
807 1465 m 5
 699 1412 l 1
 581 1652 l 1
 463 1412 l 1
 355 1465 l 1
 519 1799 l 1
 643 1799 l 1
 807 1465 l 5
EndSplineSet
Validated: 1
EndChar

StartChar: extender
Encoding: 65622 -1 453
GlifName: N_ameM_e.65635
Width: 299
VWidth: 3091
Flags: HW
AnchorPoint: "Anchor110" 151 970 basechar 0
AnchorPoint: "Anchor107" 155 -191 basechar 0
LayerCount: 2
Fore
SplineSet
-18 310 m 5
 318 310 l 1
 318 0 l 1
 -18 0 l 1
 -18 310 l 5
EndSplineSet
EndChar

StartChar: uni25CC
Encoding: 9676 9676 454
GlifName: uni25C_C_
Width: 1246
VWidth: 2075
Flags: HW
AnchorPoint: "Anchor110" 639 1236 basechar 0
AnchorPoint: "Anchor107" 614 -241 basechar 0
LayerCount: 2
Fore
SplineSet
362 37 m 1
 294 77 236 125 192 186 c 1
 258 228 l 1
 293 178 341 139 395 108 c 1
 362 37 l 1
987 228 m 1
 1054 187 l 1
 1005 123 954 77 883 37 c 1
 851 108 l 1
 908 140 946 175 987 228 c 1
883 940 m 1
 952 901 1010 852 1054 791 c 1
 987 749 l 1
 951 799 906 838 851 869 c 1
 883 940 l 1
258 749 m 1
 192 791 l 1
 232 847 296 902 362 940 c 1
 395 869 l 1
 341 838 293 799 258 749 c 1
623 39 m 0
 657 39 693 45 726 54 c 1
 751 -20 l 1
 709 -31 666 -37 623 -37 c 0
 580 -37 537 -31 495 -20 c 1
 521 54 l 1
 554 45 589 39 623 39 c 0
1144 489 m 0
 1144 444 1139 401 1131 360 c 1
 1058 386 l 1
 1065 418 1068 454 1068 489 c 0
 1068 524 1065 559 1058 591 c 1
 1131 617 l 1
 1139 576 1144 534 1144 489 c 0
623 939 m 0
 589 939 554 932 521 923 c 1
 495 997 l 1
 537 1008 580 1015 623 1015 c 0
 666 1015 709 1008 751 997 c 1
 726 923 l 1
 693 932 657 939 623 939 c 0
178 489 m 0
 178 454 182 418 189 386 c 1
 116 360 l 1
 108 401 102 444 102 489 c 0
 102 534 108 576 116 617 c 1
 189 591 l 1
 182 559 178 524 178 489 c 0
EndSplineSet
Validated: 1
EndChar

StartChar: plus
Encoding: 43 43 477
GlifName: plus
Width: 1138
Flags: HW
LayerCount: 2
Fore
SplineSet
695 394 m 1
 695 22 l 1
 443 22 l 1
 443 394 l 1
 110 394 l 1
 110 646 l 1
 443 646 l 1
 443 990 l 1
 695 990 l 1
 695 646 l 1
 1028 646 l 1
 1028 394 l 1
 695 394 l 1
EndSplineSet
EndChar

StartChar: hyphen
Encoding: 45 45 478
GlifName: hyphen
Width: 995
Flags: HW
LayerCount: 2
Fore
SplineSet
885 393 m 1
 110 393 l 1
 110 644 l 1
 885 644 l 1
 885 393 l 1
EndSplineSet
EndChar

StartChar: multiply
Encoding: 215 215 479
GlifName: multiply
Width: 1088
Flags: HW
LayerCount: 2
Fore
SplineSet
367.001579243 515.006708818 m 5
 102.029772528 785.977877194 l 1
 276.963814557 967.159563581 l 1
 544 696.122836034 l 1
 811.036185443 967.159563581 l 1
 985.970227472 785.977877194 l 1
 720.998420757 515.006708818 l 1
 987.986832964 243.018513611 l 1
 812.01908638 61.8446206792 l 1
 544 334.864063148 l 1
 275.98091362 61.8446206792 l 1
 100.013167036 243.018513611 l 1
 367.001579243 515.006708818 l 5
EndSplineSet
EndChar

StartChar: divide
Encoding: 247 247 480
GlifName: divide
Width: 1204
Flags: HW
LayerCount: 2
Fore
SplineSet
441 139 m 0
 441 229.736574612 515.191826175 305 606 305 c 0
 696.808173825 305 771 229.736574612 771 139 c 0
 771 48.2336498594 696.766350141 -26 606 -26 c 0
 515.289273906 -26 441 46.2224434937 441 139 c 0
441 901 m 0
 441 991.736574612 515.191826175 1067 606 1067 c 0
 696.808173825 1067 771 991.736574612 771 901 c 0
 771 810.233649859 696.766350141 736 606 736 c 0
 515.289273906 736 441 808.222443494 441 901 c 0
110 397 m 1
 110 648 l 1
 1094 648 l 1
 1094 397 l 1
 110 397 l 1
EndSplineSet
EndChar

StartChar: parenleft
Encoding: 40 40 539
GlifName: parenleft
Width: 730
Flags: HW
LayerCount: 2
Fore
SplineSet
399 592 m 24
 399 247 493 -109 693 -256 c 1
 629 -422 l 1
 319 -289 130 126 130 586 c 4
 130 1045 319 1473 629 1606 c 1
 693 1440 l 1
 493 1293 399 936 399 592 c 24
EndSplineSet
Validated: 1
Position2: "Single Positioning lookup 9-1" dx=0 dy=0 dh=80 dv=0
Position2: "Single Positioning lookup 8-1" dx=0 dy=0 dh=160 dv=0
EndChar

StartChar: parenright
Encoding: 41 41 540
GlifName: parenright
Width: 730
Flags: HW
LayerCount: 2
Fore
SplineSet
331 592 m 24
 331 936 237 1293 37 1440 c 1
 101 1606 l 1
 411 1473 600 1051 600 592 c 4
 600 132 411 -289 101 -422 c 1
 37 -256 l 1
 237 -109 331 247 331 592 c 24
EndSplineSet
Validated: 1
EndChar

StartChar: bracketleft
Encoding: 91 91 541
GlifName: bracketleft
Width: 577
Flags: HW
LayerCount: 2
Fore
SplineSet
564 1460 m 1
 446 1460 l 1
 446 -104 l 1
 564 -104 l 1
 564 -349 l 1
 138 -349 l 5
 138 1706 l 5
 564 1706 l 1
 564 1460 l 1
EndSplineSet
Validated: 1
Position2: "Single Positioning lookup 9-1" dx=0 dy=0 dh=100 dv=0
Position2: "Single Positioning lookup 8-1" dx=0 dy=0 dh=160 dv=0
EndChar

StartChar: bracketright
Encoding: 93 93 542
GlifName: bracketright
Width: 577
Flags: HW
LayerCount: 2
Fore
SplineSet
14 1706 m 1
 440 1706 l 5
 440 -349 l 5
 14 -349 l 1
 14 -104 l 1
 133 -104 l 1
 133 1460 l 1
 14 1460 l 1
 14 1706 l 1
EndSplineSet
Validated: 1
EndChar

StartChar: slash
Encoding: 47 47 543
GlifName: slash
Width: 719
Flags: HW
LayerCount: 2
Fore
SplineSet
210 -125 m 1
 -29 -125 l 1
 468 1456 l 1
 708 1456 l 1
 210 -125 l 1
EndSplineSet
Validated: 1
Position2: "Single Positioning lookup 8-1" dx=0 dy=0 dh=180 dv=0
EndChar

StartChar: NameMe.65703
Encoding: 65703 -1 544
GlifName: N_ameM_e.65703
Width: 556
VWidth: 2834
Flags: HW
LayerCount: 2
Fore
SplineSet
425 1274 m 1
 425 1 l 1
 132 1 l 1
 132 1274 l 1
 425 1274 l 1
EndSplineSet
Validated: 1
EndChar

StartChar: equal
Encoding: 61 61 545
GlifName: equal
Width: 1164
Flags: HW
LayerCount: 2
Fore
SplineSet
1044 188 m 1
 130 188 l 1
 130 429 l 1
 1044 429 l 1
 1044 188 l 1
1044 598 m 1
 130 598 l 1
 130 839 l 1
 1044 839 l 1
 1044 598 l 1
EndSplineSet
EndChar

StartChar: arabic_dot_r
Encoding: 65704 -1 548
Width: 197
VWidth: 2812
Flags: HW
LayerCount: 2
Fore
SplineSet
-57.150390625 102 m 0
 -57.150390625 184.777898185 11.15625 249.400390625 95.9501953125 249.400390625 c 0
 180.700195312 249.400390625 248.150390625 184.838455477 248.150390625 102 c 0
 248.150390625 19.1615445237 180.700195312 -45.400390625 95.9501953125 -45.400390625 c 0
 11.15625 -45.400390625 -57.150390625 19.2221018161 -57.150390625 102 c 0
EndSplineSet
EndChar

StartChar: arabic_2dots_r
Encoding: 65705 -1 549
Width: 517
VWidth: 2812
Flags: HW
LayerCount: 2
Fore
SplineSet
284.3828125 102 m 0
 284.3828125 180.412109375 349.084960938 241.735351562 429.41796875 241.735351562 c 0
 509.708984375 241.735351562 573.599609375 180.46875 573.599609375 102 c 0
 573.599609375 23.53125 509.708984375 -37.7353515625 429.41796875 -37.7353515625 c 0
 349.084960938 -37.7353515625 284.3828125 23.587890625 284.3828125 102 c 0
-58.6181640625 102 m 4
 -58.6181640625 180.412109375 6.083984375 241.735351562 86.4169921875 241.735351562 c 4
 166.708007812 241.735351562 230.598632812 180.46875 230.598632812 102 c 4
 230.598632812 23.53125 166.708007812 -37.7353515625 86.4169921875 -37.7353515625 c 4
 6.083984375 -37.7353515625 -58.6181640625 23.587890625 -58.6181640625 102 c 4
EndSplineSet
EndChar

StartChar: arabic_3dots_r
Encoding: 65706 -1 550
Width: 528
VWidth: 2805
Flags: HW
LayerCount: 2
Fore
SplineSet
120.141601562 344 m 4
 120.141601562 418.12890625 181.30859375 476.217773438 257.267578125 476.217773438 c 4
 333.185546875 476.217773438 393.584960938 418.18359375 393.584960938 344 c 4
 393.584960938 269.81640625 333.185546875 211.782226562 257.267578125 211.782226562 c 4
 181.30859375 211.782226562 120.141601562 269.87109375 120.141601562 344 c 4
287.641601562 66 m 0
 287.641601562 140.12890625 348.80859375 198.217773438 424.767578125 198.217773438 c 0
 500.685546875 198.217773438 561.084960938 140.18359375 561.084960938 66 c 0
 561.084960938 -8.18359375 500.685546875 -66.2177734375 424.767578125 -66.2177734375 c 0
 348.80859375 -66.2177734375 287.641601562 -8.12890625 287.641601562 66 c 0
-47.3583984375 66 m 0
 -47.3583984375 140.12890625 13.80859375 198.217773438 89.767578125 198.217773438 c 0
 165.685546875 198.217773438 226.084960938 140.18359375 226.084960938 66 c 0
 226.084960938 -8.18359375 165.685546875 -66.2177734375 89.767578125 -66.2177734375 c 0
 13.80859375 -66.2177734375 -47.3583984375 -8.12890625 -47.3583984375 66 c 0
EndSplineSet
EndChar

StartChar: arabic_3dots_a_r
Encoding: 65707 -1 551
Width: 528
VWidth: 2820
Flags: HW
LayerCount: 2
Fore
SplineSet
392.584960938 -141 m 4
 392.584960938 -215.18359375 332.185546875 -273.217773438 256.267578125 -273.217773438 c 4
 180.30859375 -273.217773438 119.141601562 -215.12890625 119.141601562 -141 c 4
 119.141601562 -66.87109375 180.30859375 -8.7822265625 256.267578125 -8.7822265625 c 4
 332.185546875 -8.7822265625 392.584960938 -66.81640625 392.584960938 -141 c 4
560.084960938 137 m 0
 560.084960938 62.81640625 499.685546875 4.7822265625 423.767578125 4.7822265625 c 0
 347.80859375 4.7822265625 286.641601562 62.87109375 286.641601562 137 c 0
 286.641601562 211.12890625 347.80859375 269.217773438 423.767578125 269.217773438 c 0
 499.685546875 269.217773438 560.084960938 211.18359375 560.084960938 137 c 0
225.084960938 137 m 0
 225.084960938 62.81640625 164.685546875 4.7822265625 88.767578125 4.7822265625 c 0
 12.80859375 4.7822265625 -48.3583984375 62.87109375 -48.3583984375 137 c 0
 -48.3583984375 211.12890625 12.80859375 269.217773438 88.767578125 269.217773438 c 0
 164.685546875 269.217773438 225.084960938 211.18359375 225.084960938 137 c 0
EndSplineSet
EndChar

StartChar: uni06D0.dots_r
Encoding: 65708 -1 552
Width: 528
VWidth: 2809
Flags: HW
LayerCount: 2
Fore
SplineSet
256.490234375 447.108398438 m 0
 334.958984375 447.108398438 396.225585938 383.217773438 396.225585938 302.926757812 c 0
 396.225585938 222.594726562 334.90234375 157.891601562 256.490234375 157.891601562 c 0
 178.078125 157.891601562 116.755859375 222.594726562 116.755859375 302.926757812 c 0
 116.755859375 383.217773438 178.021484375 447.108398438 256.490234375 447.108398438 c 0
256.490234375 104.107421875 m 4
 334.958984375 104.107421875 396.225585938 40.216796875 396.225585938 -40.07421875 c 4
 396.225585938 -120.407226562 334.90234375 -185.109375 256.490234375 -185.109375 c 4
 178.078125 -185.109375 116.755859375 -120.407226562 116.755859375 -40.07421875 c 4
 116.755859375 40.216796875 178.021484375 104.107421875 256.490234375 104.107421875 c 4
EndSplineSet
EndChar

StartChar: endash
Encoding: 8211 8211 553
Width: 1345
Flags: HW
LayerCount: 2
Fore
SplineSet
1230 398 m 5
 115 398 l 1
 115 639 l 1
 1230 639 l 5
 1230 398 l 5
EndSplineSet
EndChar

StartChar: emdash
Encoding: 8212 8212 554
Width: 1600
Flags: HW
LayerCount: 2
Fore
SplineSet
1485 398 m 1
 115 398 l 1
 115 639 l 1
 1485 639 l 1
 1485 398 l 1
EndSplineSet
EndChar
